<svg width="20" height="14" viewBox="0 0 20 14" fill="none" xmlns="http://www.w3.org/2000/svg">
<path d="M19 8C19.5523 8 20 7.55229 20 7C20 6.44772 19.5523 6 19 6V8ZM8.4238 6C7.87151 6 7.4238 6.44772 7.4238 7C7.4238 7.55229 7.87151 8 8.4238 8V6ZM8.4238 9.94212H7.4238H8.4238ZM5.32787 11.5698L5.96301 10.7974L5.32787 11.5698ZM5.32787 2.4302L5.96301 3.2026L5.32787 2.4302ZM8.4238 4.05788H9.4238H8.4238ZM1.74996 5.37232L2.3851 6.14472L1.74996 5.37232ZM1.74996 8.62768L1.11482 9.40007L1.74996 8.62768ZM19 6L8.4238 6V8L19 8V6ZM2.3851 6.14472L5.96301 3.2026L4.69273 1.65781L1.11482 4.59993L2.3851 6.14472ZM7.4238 4.05788L7.4238 9.94212H9.4238V4.05788H7.4238ZM5.96301 10.7974L2.3851 7.85528L1.11482 9.40007L4.69273 12.3422L5.96301 10.7974ZM7.4238 9.94212C7.4238 10.4159 7.17811 10.7457 6.88466 10.9C6.59841 11.0505 6.26206 11.0433 5.96301 10.7974L4.69273 12.3422C6.71166 14.0024 9.4238 12.3568 9.4238 9.94212H7.4238ZM5.96301 3.2026C6.26206 2.95669 6.59841 2.94954 6.88466 3.10004C7.17811 3.25432 7.4238 3.58409 7.4238 4.05788H9.4238C9.4238 1.64323 6.71166 -0.00236607 4.69273 1.65781L5.96301 3.2026ZM1.11482 4.59993C-0.371606 5.82222 -0.371606 8.17778 1.11482 9.40007L2.3851 7.85528C1.87163 7.43305 1.87163 6.56695 2.3851 6.14472L1.11482 4.59993Z"/>
</svg>
