<svg viewBox="0 0 60 60" fill="none" xmlns="http://www.w3.org/2000/svg">
<rect width="60" height="60" fill='white'/>
<path d="M16.3915 22.1736C14.306 22.1736 12.6089 23.8707 12.6089 25.9563C12.6089 28.0418 14.306 29.7389 16.3915 29.7389C18.477 29.7389 20.1741 28.0418 20.1741 25.9563C20.1741 23.8707 18.4769 22.1736 16.3915 22.1736ZM16.3915 27.2172C15.698 27.2172 15.1306 26.6523 15.1306 25.9563C15.1306 25.2603 15.698 24.6953 16.3915 24.6953C17.085 24.6953 17.6524 25.2603 17.6524 25.9563C17.6524 26.6523 17.0849 27.2172 16.3915 27.2172Z"/>
<path d="M28.9999 24.6956C28.3039 24.6956 27.739 25.2605 27.739 25.9565V29.7391C27.739 30.4351 28.3039 31 28.9999 31C29.6959 31 30.2608 30.435 30.2608 29.739V25.9564C30.2608 25.2604 29.6959 24.6956 28.9999 24.6956Z" />
<path d="M23.9565 24.6956C23.2605 24.6956 22.6956 25.2605 22.6956 25.9565V29.7391C22.6956 30.4351 23.2605 31 23.9565 31C24.6525 31 25.2174 30.4351 25.2174 29.7391V25.9565C25.2173 25.2604 24.6525 24.6956 23.9565 24.6956Z"/>
<path d="M18.913 39.8262C19.6094 39.8262 20.1739 39.2617 20.1739 38.5653C20.1739 37.8689 19.6094 37.3044 18.913 37.3044C18.2166 37.3044 17.6521 37.8689 17.6521 38.5653C17.6521 39.2617 18.2166 39.8262 18.913 39.8262Z"/>
<path d="M18.9128 41.0868C20.3055 41.0868 21.4345 39.9578 21.4345 38.5651C21.4345 37.1724 20.3055 36.0434 18.9128 36.0434C17.5201 36.0434 16.3911 37.1724 16.3911 38.5651C16.3911 39.9578 17.5201 41.0868 18.9128 41.0868Z" />
<path d="M6.3043 19.6523H2.5217V17.1306H6.3043C7.0003 17.1306 7.56521 16.5657 7.56521 15.8697C7.56521 15.1737 7.0003 14.6088 6.3043 14.6088H1.26091C0.564909 14.6088 0 15.1737 0 15.8697V20.9132C0 21.6092 0.564909 22.1741 1.26091 22.1741H6.30442C7.00042 22.1741 7.56533 21.6092 7.56533 20.9132C7.56533 20.2172 7.0003 19.6523 6.3043 19.6523Z"/>
<path d="M11.3478 39.8262C10.6518 39.8262 10.0869 40.3911 10.0869 41.0871V53.6957C10.0869 54.3917 9.51952 54.9567 8.826 54.9567H3.78261C3.08909 54.9567 2.5217 54.3917 2.5217 53.6957V41.087C2.5217 40.391 1.95679 39.8261 1.26079 39.8261C0.56479 39.8261 0 40.391 0 41.087V53.6957C0 55.7813 1.69709 57.4784 3.78261 57.4784H8.82612C10.9116 57.4784 12.6087 55.7813 12.6087 53.6957V41.087C12.6087 40.391 12.0438 39.8262 11.3478 39.8262Z" />
<path d="M56.7391 32.261H1.26091C0.564909 32.261 0 32.8258 0 33.5218V39.8261C0 40.3683 0.348 40.8499 0.862434 41.0214L4.64504 42.2823C4.77365 42.3252 4.90734 42.3479 5.04351 42.3479H12.8836L13.9073 46.4356C14.046 46.9979 14.5529 47.3913 15.1304 47.3913H42.8696C43.447 47.3913 43.9539 46.9979 44.0951 46.4356L45.1164 42.3479H52.9565C53.0927 42.3479 53.2263 42.3252 53.355 42.2823L57.1376 41.0214C57.652 40.8499 58 40.3683 58 39.8261V33.5218C58 32.8258 57.4351 32.261 56.7391 32.261ZM55.4782 38.9184L52.7522 39.8262H44.1304C43.5529 39.8262 43.0461 40.2196 42.9073 40.7819L41.886 44.8696H16.1164L15.0926 40.7819C14.9539 40.2196 14.4471 39.8262 13.8695 39.8262H5.24777L2.52182 38.9184V34.7827H55.4783V38.9184H55.4782Z" />
<path d="M41.6085 22.1736C39.523 22.1736 37.8259 23.8707 37.8259 25.9563C37.8259 28.0418 39.523 29.7389 41.6085 29.7389C43.694 29.7389 45.3911 28.0418 45.3911 25.9563C45.3911 23.8707 43.694 22.1736 41.6085 22.1736ZM41.6085 27.2172C40.915 27.2172 40.3476 26.6523 40.3476 25.9563C40.3476 25.2603 40.915 24.6953 41.6085 24.6953C42.3021 24.6953 42.8694 25.2603 42.8694 25.9563C42.8694 26.6523 42.3021 27.2172 41.6085 27.2172Z" />
<path d="M28.9999 24.6956C28.3039 24.6956 27.739 25.2605 27.739 25.9565V29.7391C27.739 30.4351 28.3039 31 28.9999 31C29.6959 31 30.2608 30.435 30.2608 29.739V25.9564C30.2608 25.2604 29.6959 24.6956 28.9999 24.6956Z" />
<path d="M34.0434 24.6956C33.3474 24.6956 32.7825 25.2605 32.7825 25.9565V29.7391C32.7825 30.4351 33.3474 31 34.0434 31C34.7394 31 35.3043 30.4351 35.3043 29.7391V25.9565C35.3043 25.2604 34.7394 24.6956 34.0434 24.6956Z" />
<path d="M50.6311 17.1456C49.9704 17.0422 34.4315 14.6088 28.9997 14.6088C23.5678 14.6088 8.02878 17.0422 7.36812 17.1456C6.67969 17.254 6.21064 17.8996 6.31904 18.5881C6.42743 19.2765 7.08561 19.7405 7.76151 19.6371C7.92038 19.612 23.7644 17.1306 28.9995 17.1306C34.2347 17.1306 50.0787 19.612 50.2376 19.6371C50.3032 19.6472 50.3713 19.6523 50.4368 19.6523C51.0445 19.6523 51.5816 19.2084 51.6799 18.5881C51.7886 17.8995 51.3169 17.254 50.6311 17.1456Z" />
<path d="M57.0417 24.7335L52.9514 23.7097L52.9489 20.792C52.2302 13.3554 50.8509 4.28978 48.3593 3.34413C45.9914 2.44387 31.842 2.0656 28.9697 2C26.1579 2.0656 12.0085 2.44387 9.63808 3.34413C7.14664 4.28978 5.76717 13.3529 5.04351 20.913V23.7097L0.955817 24.7335C0.393391 24.8746 0 25.379 0 25.9564V33.5216C0 34.2176 0.564909 34.7825 1.26091 34.7825H10.087C10.4526 34.7825 10.8006 34.6212 11.0402 34.3462C11.2799 34.0714 11.3882 33.7057 11.3353 33.3426L10.0744 24.5164C9.98608 23.8962 9.45403 23.4347 8.82612 23.4347H7.56273L7.56025 21.0341C8.20329 14.3591 9.60285 6.57695 10.5359 5.69939C12.0514 5.12443 22.683 4.673 28.9697 4.5217C35.3169 4.673 45.9485 5.12443 47.3405 5.63378C48.3971 6.57695 49.7967 14.359 50.4347 20.913V23.4347H49.1739C48.546 23.4347 48.0139 23.8962 47.9256 24.519L46.6647 33.3452C46.6118 33.7058 46.7201 34.0739 46.9598 34.3488C47.1994 34.6237 47.5474 34.7825 47.913 34.7825H56.7391C57.4351 34.7825 58 34.2176 57.9974 33.5216V25.9564C57.9974 25.3765 57.604 24.8746 57.0417 24.7335ZM7.73413 25.9564L8.63439 32.2607H2.5217V26.9424L6.46069 25.9564H7.73413ZM55.4782 32.2608H49.3655L50.2658 25.9565H51.5392L55.4782 26.9425V32.2608Z" />
<path d="M39.0868 39.8262C39.7832 39.8262 40.3477 39.2617 40.3477 38.5653C40.3477 37.8689 39.7832 37.3044 39.0868 37.3044C38.3905 37.3044 37.8259 37.8689 37.8259 38.5653C37.8259 39.2617 38.3905 39.8262 39.0868 39.8262Z" />
<path d="M39.0871 36.0434C37.6951 36.0434 36.5654 37.1757 36.5654 38.5651C36.5654 39.9545 37.6951 41.0868 39.0871 41.0868C40.4791 41.0868 41.6088 39.9545 41.6088 38.5651C41.6088 37.1756 40.4791 36.0434 39.0871 36.0434Z" />
<path d="M56.739 14.6088H51.6955C50.9995 14.6088 50.4346 15.1737 50.4346 15.8697C50.4346 16.5657 50.9995 17.1306 51.6955 17.1306H55.4781V19.6523H51.6955C50.9995 19.6523 50.4346 20.2172 50.4346 20.9132C50.4346 21.6092 50.9995 22.1741 51.6955 22.1741H56.739C57.435 22.1741 57.9999 21.6092 57.9999 20.9132V15.8697C57.9999 15.1737 57.435 14.6088 56.739 14.6088Z" />
<path d="M56.739 39.8262C56.0431 39.8262 55.4781 40.3911 55.4781 41.0871V53.6957C55.4781 54.3917 54.9107 54.9567 54.2172 54.9567H49.1738C48.4803 54.9567 47.9129 54.3917 47.9129 53.6957V41.087C47.9129 40.391 47.348 39.8261 46.652 39.8261C45.956 39.8261 45.3911 40.391 45.3911 41.087V53.6957C45.3911 55.7813 47.0882 57.4784 49.1737 57.4784H54.2172C56.3027 57.4784 57.9998 55.7813 57.9998 53.6957V41.087C58 40.391 57.435 39.8262 56.739 39.8262Z" />
</svg>
