<svg  viewBox="0 0 60 60" fill="none" xmlns="http://www.w3.org/2000/svg">
<rect width="60" height="60" fill='white'/>
<path d="M37.5896 28.2086C37.3633 28.2086 37.1341 28.1513 36.9296 28.0395L30.0047 24.2102L23.0771 28.0395C22.6216 28.2932 22.0598 28.2632 21.6316 27.9604C21.2061 27.6604 20.9879 27.1422 21.0697 26.6267L22.4089 18.4254L16.755 12.6269C16.3977 12.2615 16.2749 11.7269 16.4386 11.2414C16.6022 10.7559 17.0195 10.4041 17.5241 10.3277L25.2863 9.14131L28.7692 1.72004C29.2192 0.759988 30.7875 0.759988 31.2375 1.72004L34.7204 9.14131L42.4826 10.3277C42.9872 10.4041 43.4072 10.7587 43.5681 11.2414C43.729 11.7242 43.609 12.2615 43.2517 12.6269L37.5951 18.4227L38.9342 26.624C39.0188 27.1395 38.8006 27.6577 38.3724 27.9577C38.1406 28.1241 37.8651 28.2086 37.5896 28.2086ZM30.0047 21.2865C30.2311 21.2865 30.4602 21.3437 30.6647 21.4556L35.7923 24.2893L34.794 18.1799C34.7258 17.7517 34.8622 17.3181 35.165 17.0072L39.447 12.616L33.5912 11.7214C33.1412 11.6533 32.7567 11.3641 32.563 10.9523L30.0047 5.50841L27.4464 10.9578C27.2528 11.3696 26.8682 11.6587 26.4182 11.7269L20.5624 12.6215L24.8444 17.0126C25.1472 17.3235 25.2836 17.7572 25.2154 18.1854L24.2171 24.2948L29.3447 21.461C29.5492 21.3437 29.7783 21.2865 30.0047 21.2865Z" />
<path d="M21.2252 55.4827C20.9988 55.4827 20.7697 55.4254 20.5651 55.3136L13.6402 51.4843L6.71263 55.3136C6.25715 55.5672 5.69258 55.5345 5.2671 55.2345C4.84163 54.9345 4.62343 54.4163 4.70526 53.9008L6.04441 45.6995L0.387771 39.9037C0.0304804 39.5383 -0.0922531 39.0037 0.0713914 38.5182C0.235036 38.0327 0.652329 37.6809 1.1569 37.6045L8.9191 36.4181L12.402 28.9968C12.852 28.0368 14.4203 28.0368 14.8703 28.9968L18.3532 36.4181L26.1154 37.6045C26.62 37.6809 27.04 38.0355 27.2009 38.5182C27.3618 39.001 27.2418 39.5383 26.8845 39.9037L21.2279 45.6995L22.5671 53.9008C22.6516 54.4163 22.4334 54.9345 22.0052 55.2345C21.7761 55.3981 21.5006 55.4827 21.2252 55.4827ZM13.6402 48.5605C13.8666 48.5605 14.0957 48.6178 14.3003 48.7296L19.4278 51.5634L18.4296 45.454C18.3614 45.0258 18.4978 44.5921 18.8005 44.2812L23.0825 39.8901L17.2268 38.9955C16.7768 38.9273 16.3922 38.6382 16.1986 38.2264L13.6402 32.7825L11.0819 38.2318C10.8883 38.6437 10.5037 38.9328 10.0537 39.001L4.19796 39.8956L8.47999 44.2867C8.78273 44.5976 8.9191 45.0313 8.85092 45.4595L7.85269 51.5689L12.9802 48.7351C13.1848 48.6178 13.4139 48.5605 13.6402 48.5605Z"/>
<path d="M53.9542 55.4827C53.7278 55.4827 53.4987 55.4254 53.2941 55.3136L46.3692 51.4843L39.4416 55.3136C38.9862 55.5672 38.4216 55.5345 37.9961 55.2345C37.5706 54.9345 37.3524 54.4163 37.4343 53.9008L38.7734 45.6995L33.1168 39.9037C32.7595 39.5383 32.6368 39.0037 32.8004 38.5182C32.964 38.0327 33.3813 37.6809 33.8859 37.6045L41.6481 36.4181L45.131 28.9968C45.581 28.0368 47.1493 28.0368 47.5993 28.9968L51.0822 36.4181L58.8444 37.6045C59.349 37.6809 59.769 38.0355 59.9299 38.5182C60.0908 39.001 59.9708 39.5383 59.6135 39.9037L53.9569 45.6995L55.2961 53.9008C55.3806 54.4163 55.1624 54.9345 54.7342 55.2345C54.5051 55.3981 54.2296 55.4827 53.9542 55.4827ZM46.3692 48.5605C46.5956 48.5605 46.8247 48.6178 47.0293 48.7296L52.1568 51.5634L51.1586 45.454C51.0904 45.0258 51.2268 44.5921 51.5295 44.2812L55.8115 39.8901L49.9558 38.9955C49.5058 38.9273 49.1212 38.6382 48.9276 38.2264L46.3692 32.7825L43.8109 38.2318C43.6173 38.6437 43.2327 38.9328 42.7827 39.001L36.927 39.8956L41.209 44.2867C41.5117 44.5976 41.6481 45.0313 41.5799 45.4595L40.5817 51.5689L45.7092 48.7351C45.9138 48.6178 46.1429 48.5605 46.3692 48.5605Z" />
</svg>
