<svg viewBox="0 0 60 60" fill="none" xmlns="http://www.w3.org/2000/svg">
<g clip-path="url(#clip0_1_320)">
<path fill-rule="evenodd" clip-rule="evenodd" d="M50.8968 33.54V46.8375H52.9687C56.3489 46.8375 59.0999 49.5886 59.0999 52.9688C59.0999 53.7663 58.4537 54.4125 57.6562 54.4125C56.8587 54.4125 56.2124 53.7663 56.2124 52.9688C56.2124 51.1795 54.758 49.725 52.9687 49.725H45.9374C44.1481 49.725 42.6936 51.1795 42.6936 52.9688C42.6936 54.7581 44.1481 56.2125 45.9374 56.2125H52.9687C53.7662 56.2125 54.4124 56.8588 54.4124 57.6563C54.4124 58.4538 53.7662 59.1 52.9687 59.1H45.9374C42.5572 59.1 39.8062 56.349 39.8062 52.9688C39.8062 49.5886 42.5572 46.8375 45.9374 46.8375H48.0093V33.5401L47.5602 33.2801C46.9854 32.9474 46.5057 32.4677 46.1729 31.8929L45.913 31.4438H14.0868L13.8268 31.893C13.4755 32.4999 12.9616 33.0009 12.3452 33.3342L11.8733 33.5894V46.8375H14.0624C17.4426 46.8375 20.1937 49.5886 20.1937 52.9688C20.1937 53.7663 19.5474 54.4125 18.7499 54.4125C17.9524 54.4125 17.3062 53.7663 17.3062 52.9688C17.3062 51.1795 15.8517 49.725 14.0624 49.725H7.03115C5.24183 49.725 3.7874 51.1795 3.7874 52.9688C3.7874 54.7581 5.24183 56.2125 7.03115 56.2125H14.0624C14.8599 56.2125 15.5062 56.8588 15.5062 57.6563C15.5062 58.4538 14.8599 59.1 14.0624 59.1H7.03115C3.65095 59.1 0.899902 56.349 0.899902 52.9688C0.899902 49.5886 3.65095 46.8375 7.03115 46.8375H8.98584V33.4877L8.55911 33.2239C7.47721 32.5551 6.75928 31.3609 6.75928 30C6.75928 28.6391 7.47721 27.445 8.55911 26.7761L8.98584 26.5123V13.1625H7.03115C3.65095 13.1625 0.899902 10.4115 0.899902 7.03127C0.899902 3.65107 3.65095 0.900024 7.03115 0.900024H14.0624C17.4426 0.900024 20.1937 3.65107 20.1937 7.03127C20.1937 7.82877 19.5474 8.47502 18.7499 8.47502C17.9524 8.47502 17.3062 7.82877 17.3062 7.03127C17.3062 5.24195 15.8517 3.78752 14.0624 3.78752H7.03115C5.24183 3.78752 3.7874 5.24195 3.7874 7.03127C3.7874 8.8206 5.24183 10.275 7.03115 10.275H14.0624C14.8599 10.275 15.5062 10.9213 15.5062 11.7188C15.5062 12.5163 14.8599 13.1625 14.0624 13.1625H11.8733V26.4107L12.3452 26.6659C12.9614 26.999 13.4751 27.5 13.827 28.1075L14.0871 28.5563H45.913L46.1729 28.1072C46.5057 27.5324 46.9854 27.0527 47.5602 26.7199L48.0093 26.46V13.1625H45.9374C42.5572 13.1625 39.8062 10.4115 39.8062 7.03127C39.8062 3.65107 42.5572 0.900024 45.9374 0.900024H52.9687C56.3489 0.900024 59.0999 3.65107 59.0999 7.03127C59.0999 7.82877 58.4537 8.47502 57.6562 8.47502C56.8587 8.47502 56.2124 7.82877 56.2124 7.03127C56.2124 5.24195 54.758 3.78752 52.9687 3.78752H45.9374C44.1481 3.78752 42.6936 5.24195 42.6936 7.03127C42.6936 8.8206 44.1481 10.275 45.9374 10.275H52.9687C53.7662 10.275 54.4124 10.9213 54.4124 11.7188C54.4124 12.5163 53.7662 13.1625 52.9687 13.1625H50.8968V26.46L51.346 26.72C52.4806 27.3767 53.2405 28.5998 53.2405 30C53.2405 31.4002 52.4806 32.6234 51.346 33.2801L50.8968 33.54Z" />
</g>
<defs>
<clipPath id="clip0_1_320">
<rect width="60" height="60" />
</clipPath>
</defs>
</svg>
