<svg  viewBox="0 0 60 60" fill="none" xmlns="http://www.w3.org/2000/svg">
<rect width="60" height="60" fill='white'/>
<path fill-rule="evenodd" clip-rule="evenodd" d="M42.0569 28.9429H47.9427V21.7143C47.9427 20.9733 48.5445 20.3715 49.2855 20.3715H53.5712C56.6737 20.3715 59.1998 22.8976 59.1998 26V45.2858C59.1998 48.3882 56.6737 50.9143 53.5712 50.9143H49.2855C48.5445 50.9143 47.9427 50.3125 47.9427 49.5715V42.3429H42.0569V49.5715C42.0569 51.4932 40.493 53.0572 38.5712 53.0572H19.9991C19.2508 53.0572 18.5063 52.809 17.9077 52.3601L10.7649 47.0024C9.89377 46.3504 9.37123 45.3045 9.37123 44.2143V35.9143H3.48552V45.2858C3.48552 46.0268 2.88369 46.6286 2.14266 46.6286C1.40163 46.6286 0.799805 46.0268 0.799805 45.2858V23.8572C0.799805 23.1162 1.40163 22.5143 2.14266 22.5143C2.88369 22.5143 3.48552 23.1162 3.48552 23.8572V33.2286H9.37123V23.8572C9.37123 21.9354 10.9352 20.3715 12.8569 20.3715H24.3712V10.4858H14.9998C14.2588 10.4858 13.6569 9.88393 13.6569 9.14291C13.6569 8.40188 14.2588 7.80005 14.9998 7.80005H36.4284C37.1694 7.80005 37.7712 8.40188 37.7712 9.14291C37.7712 9.88394 37.1694 10.4858 36.4284 10.4858H27.0569V20.3715H38.5712C40.493 20.3715 42.0569 21.9354 42.0569 23.8572V28.9429ZM50.6284 41V48.2286H53.5712C55.1938 48.2286 56.5141 46.9083 56.5141 45.2858V26C56.5141 24.3775 55.1938 23.0572 53.5712 23.0572H50.6284V30.2858C50.6284 31.0268 50.0265 31.6286 49.2855 31.6286H40.7141C39.9731 31.6286 39.3712 31.0268 39.3712 30.2858V23.0572H12.0569V44.6143L19.7324 50.3715H39.3712V41C39.3712 40.259 39.9731 39.6572 40.7141 39.6572H49.2855C50.0265 39.6572 50.6284 40.259 50.6284 41Z" />
<path fill-rule="evenodd" clip-rule="evenodd" d="M26.7115 28.9723C27.2791 29.3652 27.4207 30.1439 27.0277 30.7115L23.8857 35.25H30C30.4529 35.25 30.8703 35.4949 31.0912 35.8902C31.3121 36.2856 31.3019 36.7694 31.0646 37.1551L27.0646 43.6551C26.7028 44.2431 25.9328 44.4264 25.3449 44.0646C24.7569 43.7027 24.5736 42.9328 24.9354 42.3449L27.763 37.75H21.5C21.0351 37.75 20.6086 37.492 20.3928 37.0801C20.177 36.6683 20.2076 36.1707 20.4723 35.7885L24.9723 29.2885C25.3652 28.7209 26.1439 28.5793 26.7115 28.9723Z" />
</svg>
