<svg viewBox="0 0 60 60" fill="none" xmlns="http://www.w3.org/2000/svg">
<rect width="60" height="60" fill="white"/>
<path d="M45.726 32.5905H41.6901C41.1329 32.5905 40.6812 33.0423 40.6812 33.5995H36.054L29.5825 27.128V17.456C29.5825 17.1884 29.4761 16.9319 29.2869 16.7427L17.1793 4.63512L15.5791 3.03591C14.3971 1.85378 12.4806 1.85353 11.2985 3.03553C11.2983 3.03566 11.2982 3.03578 11.2981 3.03591L1.03591 13.2981C-0.14622 14.4801 -0.146472 16.3966 1.03553 17.5787C1.03566 17.5789 1.03578 17.579 1.03591 17.5791L2.63613 19.1783L14.7437 31.2859C14.9329 31.4751 15.1894 31.5815 15.457 31.5815H25.129L27.1469 33.5995H19.4929C18.9357 33.5995 18.4839 34.0512 18.4839 34.6084V55.7967C18.4839 57.4684 19.8391 58.8236 21.5108 58.8236H23.5288C25.2005 58.8236 26.5557 57.4684 26.5557 55.7967V41.6712H30.5915V45.707C30.5948 48.4918 32.8516 50.7486 35.6363 50.7519C36.1935 50.7519 36.6453 50.3001 36.6453 49.7429V41.6712H40.6812C40.6812 42.2284 41.1329 42.6801 41.6901 42.6801H45.726C46.2832 42.6801 46.7349 42.2284 46.7349 41.6712V33.5995C46.7349 33.0423 46.2832 32.5905 45.726 32.5905ZM2.46258 16.1524C2.06833 15.7587 2.06795 15.1198 2.46183 14.7255C2.46208 14.7253 2.46233 14.725 2.46258 14.7248L12.7248 4.46258C13.1185 4.06833 13.7574 4.06795 14.1517 4.46183C14.1519 4.46208 14.1522 4.46233 14.1524 4.46258L15.0383 5.34845L3.34946 17.0383L2.46258 16.1524ZM15.8748 29.5636L4.77614 18.465L16.466 6.77513L27.5646 17.8737V27.128L25.129 29.5636H15.8748ZM40.6812 39.6533H35.6363C35.0791 39.6533 34.6274 40.105 34.6274 40.6622V48.5614C33.4189 48.1322 32.611 46.9894 32.6094 45.707V40.6622C32.6094 40.105 32.1577 39.6533 31.6005 39.6533H25.5467C24.9895 39.6533 24.5377 40.105 24.5377 40.6622V55.7967C24.5377 56.3539 24.086 56.8057 23.5288 56.8057H21.5108C20.9536 56.8057 20.5019 56.3539 20.5019 55.7967V35.6174H29.5825C30.1397 35.6173 30.5914 35.1655 30.5913 34.6082C30.5913 34.3407 30.4849 34.0843 30.2959 33.8951L26.9734 30.5726L28.5736 28.9724L34.923 35.3218C35.1122 35.511 35.3687 35.6174 35.6363 35.6174H40.6812V39.6533ZM44.717 40.6622H42.6991V34.6084H44.717V40.6622Z" />
<path fill-rule="evenodd" clip-rule="evenodd" d="M15.6845 2.93025C15.6846 2.93026 15.6845 2.93024 15.6845 2.93025L17.2847 4.52942L29.3923 16.637C29.6095 16.8542 29.7317 17.1486 29.7317 17.4559V27.066L36.1157 33.4501H40.5413C40.6145 32.8809 41.1009 32.4411 41.69 32.4411H45.7259C46.3655 32.4411 46.8841 32.9597 46.8841 33.5993V41.6711C46.8841 42.3107 46.3655 42.8293 45.7259 42.8293H41.69C41.1009 42.8293 40.6145 42.3895 40.5413 41.8203H36.7944V49.7428C36.7944 50.3824 36.2758 50.901 35.6362 50.901C32.7692 50.8976 30.4455 48.5741 30.4421 45.7071V41.8203H26.7048V55.7966C26.7048 57.5507 25.2828 58.9727 23.5286 58.9727H21.5107C19.7565 58.9727 18.3346 57.5507 18.3346 55.7966V34.6083C18.3346 33.9687 18.8531 33.4501 19.4928 33.4501H26.7864L25.067 31.7307H15.4569C15.1496 31.7307 14.8552 31.6084 14.638 31.3913L2.5305 19.2838L0.930279 17.6846C-0.310018 16.4441 -0.310159 14.4327 0.930251 13.1924L11.1924 2.93024C12.4328 1.68996 14.4443 1.68988 15.6845 2.93025ZM15.4735 3.14132C14.3497 2.01747 12.5277 2.01724 11.4039 3.14094C11.4039 3.14095 11.4039 3.14094 11.4039 3.14094L1.14132 13.4035C0.0174801 14.5272 0.0172448 16.3493 1.14095 17.4731M1.14095 17.4731L2.74151 19.0726L14.8491 31.1802C15.0104 31.3415 15.2289 31.4322 15.4569 31.4322H25.1907L27.5071 33.7486H19.4928C19.018 33.7486 18.6331 34.1335 18.6331 34.6083V55.7966C18.6331 57.3859 19.9214 58.6742 21.5107 58.6742H23.5286C25.1179 58.6742 26.4063 57.3859 26.4063 55.7966V41.5218H30.7406V45.7067C30.7438 48.4092 32.9339 50.5993 35.6364 50.6025C36.1111 50.6024 36.4959 50.2175 36.4959 49.7428V41.5218H40.8303V41.6711C40.8303 42.1458 41.2152 42.5308 41.69 42.5308H45.7259C46.2006 42.5308 46.5856 42.1458 46.5856 41.6711V33.5993C46.5856 33.1246 46.2006 32.7396 45.7259 32.7396H41.69C41.2152 32.7396 40.8303 33.1246 40.8303 33.5993V33.7486H35.9921L29.4332 27.1897V17.4559C29.4332 17.2279 29.3425 17.0093 29.1813 16.8481L17.0737 4.74056L15.4735 3.14132M14.0461 4.56729C13.7101 4.23168 13.1657 4.23201 12.8302 4.56793L2.5673 14.8309C2.23169 15.1668 2.23201 15.7112 2.56793 16.0467L3.34928 16.8272L14.8271 5.34833L14.0461 4.56729ZM12.6191 4.35692C13.0711 3.9044 13.8045 3.90399 14.2571 4.35611L14.2579 4.35692L15.2493 5.34832L3.34941 17.2492L2.35699 16.2579C2.35699 16.2579 2.35699 16.2579 2.35699 16.2579C1.90441 15.8059 1.90398 15.0725 2.35611 14.6199L12.6191 4.35692ZM16.4659 6.56393L27.7137 17.8118V27.1897L25.1907 29.7127H15.8128L4.56494 18.4649L16.4659 6.56393ZM4.9871 18.4649L15.9365 29.4142H25.067L27.4152 27.066V17.9354L16.4659 6.98608L4.9871 18.4649ZM28.5735 28.7612L35.0284 35.2161C35.1896 35.3773 35.4082 35.468 35.6362 35.468H40.8303V39.8024H35.6362C35.1614 39.8024 34.7765 40.1873 34.7765 40.6621V48.7727L34.5773 48.7019C33.3093 48.2516 32.4617 47.0526 32.4601 45.7071V40.6621C32.4601 40.1873 32.0751 39.8024 31.6004 39.8024H25.5466C25.0718 39.8024 24.6869 40.1873 24.6869 40.6621V55.7966C24.6869 56.4362 24.1683 56.9548 23.5286 56.9548H21.5107C20.8711 56.9548 20.3525 56.4362 20.3525 55.7966V35.468H29.5824C30.0572 35.4679 30.442 35.083 30.4419 34.6081C30.4419 34.3802 30.3513 34.1617 30.1902 34.0005C30.1902 34.0005 30.1902 34.0005 30.1902 34.0005L26.7622 30.5724L28.5735 28.7612ZM27.1843 30.5724L30.4013 33.7894C30.6183 34.0066 30.7404 34.3009 30.7404 34.6081C30.7405 35.2478 30.2221 35.7664 29.5824 35.7665H20.651V55.7966C20.651 56.2713 21.0359 56.6563 21.5107 56.6563H23.5286C24.0034 56.6563 24.3883 56.2713 24.3883 55.7966V40.6621C24.3883 40.0225 24.9069 39.5039 25.5466 39.5039H31.6004C32.24 39.5039 32.7586 40.0225 32.7586 40.6621V45.7067C32.7599 46.8541 33.4403 47.884 34.478 48.3415V40.6621C34.478 40.0225 34.9966 39.5039 35.6362 39.5039H40.5318V35.7665H35.6362C35.3289 35.7665 35.0345 35.6443 34.8173 35.4272L28.5735 29.1833L27.1843 30.5724ZM42.5497 34.459H44.8661V40.8113H42.5497V34.459ZM42.8482 34.7576V40.5128H44.5676V34.7576H42.8482Z" />
<path d="M51.4591 32.8859C51.0681 32.5081 50.4481 32.5081 50.0571 32.8859L48.0392 34.9038C47.6384 35.291 47.6273 35.9297 48.0145 36.3305C48.4017 36.7313 49.0404 36.7424 49.4412 36.3552C49.4495 36.3471 49.4578 36.3389 49.4659 36.3305L51.4838 34.3125C51.871 33.9117 51.8599 33.2729 51.4591 32.8859Z" />
<path fill-rule="evenodd" clip-rule="evenodd" d="M51.5629 32.7786C51.114 32.345 50.4023 32.345 49.9535 32.7786L51.5629 32.7786ZM50.1618 32.9924L48.143 35.0112C47.8015 35.3412 47.792 35.8853 48.1219 36.2269C48.4518 36.5684 48.9959 36.5778 49.3375 36.248C49.3453 36.2404 49.352 36.2338 49.358 36.2275L49.3604 36.225L51.3774 34.208C51.7065 33.8665 51.6967 33.3228 51.3555 32.9933C51.0227 32.6718 50.495 32.6715 50.1618 32.9924ZM51.5629 32.7786C52.023 33.2229 52.0357 33.9562 51.5913 34.4163L51.5895 34.4182L49.5727 36.435C49.563 36.445 49.5535 36.4543 49.5452 36.4624C49.085 36.9069 48.3517 36.8943 47.9072 36.4343C47.4631 35.9745 47.4755 35.242 47.9346 34.7975L49.9535 32.7786" />
<path d="M51.4835 40.9577L49.4656 38.9398C49.0648 38.5526 48.4261 38.5637 48.0389 38.9645C47.6612 39.3555 47.6612 39.9755 48.0389 40.3664L50.0568 42.3844C50.4577 42.7716 51.0963 42.7605 51.4835 42.3596C51.8613 41.9687 51.8613 41.3487 51.4835 40.9577Z" />
<path fill-rule="evenodd" clip-rule="evenodd" d="M47.9317 38.8608C48.3761 38.4007 49.1093 38.3879 49.5694 38.8324L49.5712 38.8342L51.591 40.854C52.0246 41.3028 52.0246 42.0145 51.591 42.4633C51.1465 42.9234 50.4133 42.9362 49.9532 42.4917L49.9514 42.4899L47.9317 40.4701C47.498 40.0213 47.498 39.3096 47.9317 38.8608ZM49.3611 39.0462C49.0195 38.7172 48.476 38.7269 48.1464 39.0682C47.8248 39.401 47.8245 39.9287 48.1455 40.2618L50.1615 42.2779C50.5031 42.6069 51.0466 42.5972 51.3763 42.2559C51.6978 41.9231 51.6981 41.3955 51.3771 41.0623L49.3611 39.0462Z" />
<path d="M55.5197 44.9934L53.5017 42.9754C53.1009 42.5882 52.4622 42.5993 52.075 43.0002C51.6973 43.3911 51.6973 44.0111 52.075 44.4021L54.093 46.42C54.4938 46.8072 55.1325 46.7961 55.5197 46.3953C55.8974 46.0043 55.8974 45.3843 55.5197 44.9934Z" />
<path fill-rule="evenodd" clip-rule="evenodd" d="M51.968 42.8965C52.4125 42.4365 53.1457 42.4237 53.6058 42.8682L53.6076 42.87L55.6274 44.8897C56.061 45.3385 56.061 46.0503 55.6273 46.4991C55.1829 46.9592 54.4497 46.9719 53.9896 46.5275L53.9878 46.5257L51.968 44.5059C51.5344 44.0571 51.5344 43.3454 51.968 42.8965ZM53.3975 43.082C53.0559 42.753 52.5124 42.7627 52.1827 43.1039C51.8612 43.4368 51.8609 43.9644 52.1819 44.2976L54.1979 46.3136C54.5395 46.6427 55.083 46.6329 55.4126 46.2917C55.7342 45.9589 55.7345 45.4312 55.4135 45.098L53.3975 43.082Z" />
<path d="M59.5568 49.029L57.5388 47.0111C57.138 46.6239 56.4993 46.635 56.1122 47.0358C55.7344 47.4268 55.7344 48.0468 56.1122 48.4378L58.1301 50.4557C58.5309 50.8429 59.1696 50.8318 59.5568 50.431C59.9345 50.04 59.9345 49.42 59.5568 49.029Z" />
<path fill-rule="evenodd" clip-rule="evenodd" d="M56.0047 46.9323C56.4491 46.4722 57.1823 46.4595 57.6424 46.904L57.6442 46.9058L59.664 48.9255C60.0976 49.3743 60.0976 50.0861 59.664 50.5349C59.2195 50.995 58.4863 51.0077 58.0262 50.5633L58.0244 50.5615L56.0047 48.5417C55.571 48.0929 55.571 47.3812 56.0047 46.9323ZM57.4341 47.1178C57.0925 46.7888 56.549 46.7985 56.2194 47.1397C55.8978 47.4726 55.8975 48.0002 56.2185 48.3334L58.2345 50.3494C58.5761 50.6785 59.1196 50.6687 59.4493 50.3275C59.7708 49.9947 59.7711 49.467 59.4501 49.1338L57.4341 47.1178Z" />
<path d="M55.519 28.85C55.125 28.4561 54.4863 28.4561 54.0923 28.85L52.0744 30.8679C51.6736 31.2551 51.6625 31.8938 52.0497 32.2946C52.4368 32.6954 53.0755 32.7065 53.4763 32.3193C53.4846 32.3112 53.493 32.303 53.501 32.2946L55.519 30.2766C55.9129 29.8826 55.9129 29.244 55.519 28.85Z" />
<path fill-rule="evenodd" clip-rule="evenodd" d="M53.9869 28.7446C54.4391 28.2924 55.1723 28.2924 55.6246 28.7446C56.0767 29.1968 56.0768 29.93 55.6246 30.3823L53.6078 32.3991C53.5982 32.4092 53.5887 32.4185 53.5803 32.4266C53.1202 32.8711 52.3868 32.8585 51.9424 32.3984C51.4982 31.9386 51.5107 31.2062 51.9698 30.7616L53.9869 28.7446ZM54.1979 28.9557L52.1782 30.9754C51.8366 31.3053 51.8272 31.8495 52.1571 32.191C52.487 32.5325 53.0311 32.542 53.3726 32.2122C53.3804 32.2046 53.3871 32.198 53.3932 32.1916L53.3956 32.1892L55.4135 30.1713C55.4135 30.1713 55.4135 30.1713 55.4135 30.1713C55.7491 29.8356 55.7491 29.2914 55.4135 28.9557C55.4135 28.9557 55.4136 28.9557 55.4135 28.9557" />
<path d="M59.5311 24.8141C59.1401 24.4365 58.5203 24.4365 58.1292 24.8141L56.1112 26.8321C55.7104 27.2193 55.6993 27.8579 56.0865 28.2588C56.4737 28.6596 57.1124 28.6707 57.5132 28.2835C57.5216 28.2754 57.5298 28.2671 57.5379 28.2588L59.5558 26.2408C59.9429 25.84 59.9318 25.2012 59.5311 24.8141Z" />
<path fill-rule="evenodd" clip-rule="evenodd" d="M58.0254 24.7069C58.4743 24.2734 59.1859 24.2734 59.6347 24.7069C60.0947 25.1512 60.1074 25.8845 59.6631 26.3446L59.6613 26.3465L57.6442 28.3636C57.6359 28.372 57.6266 28.3816 57.6165 28.3912M58.0254 24.7069L56.0065 26.7257L58.0254 24.7069ZM58.2336 24.9207L56.2149 26.9395C55.8733 27.2695 55.8639 27.8136 56.1938 28.1551C56.5237 28.4967 57.0679 28.5061 57.4094 28.1762C57.4158 28.1701 57.423 28.1628 57.4307 28.1549L57.4323 28.1533L59.4493 26.1363C59.7782 25.7947 59.7684 25.2511 59.4273 24.9216M58.2336 24.9207C58.567 24.5998 59.0945 24.6002 59.4273 24.9216L58.2336 24.9207Z" />
<path d="M53.7976 36.6262H51.7797C51.2225 36.6262 50.7708 37.0779 50.7708 37.6351C50.7708 38.1923 51.2225 38.6441 51.7797 38.6441H53.7976C54.3548 38.6441 54.8066 38.1923 54.8066 37.6351C54.8066 37.0779 54.3548 36.6262 53.7976 36.6262Z" />
<path fill-rule="evenodd" clip-rule="evenodd" d="M50.6216 37.6352C50.6216 36.9956 51.1402 36.477 51.7798 36.477H53.7977C54.4374 36.477 54.956 36.9956 54.956 37.6352C54.956 38.2749 54.4374 38.7935 53.7977 38.7935H51.7798C51.1402 38.7935 50.6216 38.2749 50.6216 37.6352ZM51.7798 36.7755C51.305 36.7755 50.9201 37.1605 50.9201 37.6352C50.9201 38.11 51.305 38.4949 51.7798 38.4949H53.7977C54.2725 38.4949 54.6574 38.11 54.6574 37.6352C54.6574 37.1605 54.2725 36.7755 53.7977 36.7755H51.7798Z" />
<path d="M58.8416 36.6259H56.8237C56.2665 36.6259 55.8147 37.0777 55.8147 37.6349C55.8147 38.1921 56.2665 38.6438 56.8237 38.6438H58.8416C59.3988 38.6438 59.8506 38.1921 59.8506 37.6349C59.8506 37.0777 59.3988 36.6259 58.8416 36.6259Z" />
<path fill-rule="evenodd" clip-rule="evenodd" d="M55.6658 37.635C55.6658 36.9954 56.1844 36.4768 56.824 36.4768H58.8419C59.4816 36.4768 60.0001 36.9954 60.0001 37.635C60.0001 38.2746 59.4816 38.7932 58.8419 38.7932H56.824C56.1844 38.7932 55.6658 38.2746 55.6658 37.635ZM56.824 36.7753C56.3492 36.7753 55.9643 37.1602 55.9643 37.635C55.9643 38.1098 56.3492 38.4947 56.824 38.4947H58.8419C59.3167 38.4947 59.7016 38.1098 59.7016 37.635C59.7016 37.1602 59.3167 36.7753 58.8419 36.7753H56.824Z" />
</svg>
