<svg viewBox="0 0 60 60" fill="none" xmlns="http://www.w3.org/2000/svg">
<rect width="60" height="60" fill="white"/>
<path d="M31.3768 9.08087H14.0586C13.119 9.08087 12.3584 9.84143 12.3584 10.7811V22.7799C12.3584 23.7184 13.119 24.4801 14.0586 24.4801H31.3768C32.3153 24.4801 33.077 23.7184 33.077 22.7799V10.7811C33.077 9.84143 32.3153 9.08087 31.3768 9.08087ZM29.6766 21.0797H15.7588V12.4813H29.6766V21.0797Z" />
<path fill-rule="evenodd" clip-rule="evenodd" d="M30.0766 21.4797H15.3588V12.0813H30.0766V21.4797ZM31.3768 9.48087H14.0586C13.3399 9.48087 12.7584 10.0623 12.7584 10.7811V22.7799C12.7584 23.4977 13.34 24.0801 14.0586 24.0801H31.3768C32.0944 24.0801 32.677 23.4975 32.677 22.7799V10.7811C32.677 10.0625 32.0946 9.48087 31.3768 9.48087ZM14.0586 9.08087H31.3768C32.3153 9.08087 33.077 9.84143 33.077 10.7811V22.7799C33.077 23.7184 32.3153 24.4801 31.3768 24.4801H14.0586C13.119 24.4801 12.3584 23.7184 12.3584 22.7799V10.7811C12.3584 9.84143 13.119 9.08087 14.0586 9.08087ZM29.6766 21.0797V12.4813H15.7588V21.0797H29.6766Z" fill="white"/>
<path d="M55.495 12.1539L55.4945 12.1536L48.2366 5.28439C47.5545 4.63899 46.4785 4.66857 45.833 5.35058C45.1876 6.03259 45.2171 7.10859 45.8992 7.7541L49.6655 11.3187C47.3068 12.1926 45.6203 14.4664 45.6203 17.1254C45.6203 19.8922 47.4463 22.2418 49.9558 23.0307V44.0656C49.9558 44.6289 49.4967 45.0868 48.9345 45.0868C48.3712 45.0868 47.9133 44.6289 47.9133 44.0656V33.377C47.9133 30.566 45.6248 28.2775 42.8138 28.2775H38.8705V8.1006C38.8705 5.28733 36.5832 3 33.7699 3H11.6651C8.85293 3 6.56447 5.28733 6.56447 8.1006V45.9334H5.9762C3.78294 45.9334 2 47.7175 2 49.9107V56.155C2 57.0947 2.76056 57.8552 3.7002 57.8552H41.7359C42.6744 57.8552 43.4361 57.0947 43.4361 56.155V49.9107C43.4361 47.7175 41.652 45.9334 39.4588 45.9334H38.8705V31.6778H42.8138C43.7501 31.6778 44.5129 32.4406 44.5129 33.3769V44.0655C44.5129 46.5035 46.4965 48.4871 48.9345 48.4871C51.3726 48.4871 53.3562 46.5035 53.3562 44.0655V23.1201C56.0232 22.431 58 20.0042 58 17.1252C58 15.0918 57.0139 13.2839 55.495 12.1539ZM35.4701 45.9334H9.96486V8.1006C9.96486 7.16322 10.7277 6.4004 11.6651 6.4004H33.7699C34.7084 6.4004 35.4701 7.16322 35.4701 8.1006C35.4701 8.7512 35.4701 45.36 35.4701 45.9334ZM40.0357 49.9107V54.4548H5.4004V49.9107C5.4004 49.5922 5.65883 49.3338 5.9762 49.3338C7.29249 49.3338 37.8761 49.3338 39.4588 49.3338C39.7773 49.3338 40.0357 49.5922 40.0357 49.9107ZM51.8101 19.9147C50.2754 19.9147 49.0207 18.6653 49.0207 17.1252C49.0207 15.5871 50.272 14.3358 51.8101 14.3358C53.3483 14.3358 54.5996 15.5871 54.5996 17.1252C54.5996 18.6642 53.3472 19.9147 51.8101 19.9147Z" />
<path fill-rule="evenodd" clip-rule="evenodd" d="M53.3562 23.1201V44.0655C53.3562 46.5035 51.3726 48.4871 48.9345 48.4871C46.4965 48.4871 44.5129 46.5035 44.5129 44.0655V33.3769C44.5129 32.4406 43.7501 31.6778 42.8138 31.6778H38.8705V45.9334H39.4588C41.652 45.9334 43.4361 47.7175 43.4361 49.9107V56.155C43.4361 57.0947 42.6744 57.8552 41.7359 57.8552H3.7002C2.76056 57.8552 2 57.0947 2 56.155V49.9107C2 47.7175 3.78294 45.9334 5.9762 45.9334H6.56447V8.1006C6.56447 5.28733 8.85293 3 11.6651 3H33.7699C36.5832 3 38.8705 5.28733 38.8705 8.1006V28.2775H42.8138C45.6248 28.2775 47.9133 30.566 47.9133 33.377V44.0656C47.9133 44.6289 48.3712 45.0868 48.9345 45.0868C49.4967 45.0868 49.9558 44.6289 49.9558 44.0656V23.0307C47.4463 22.2418 45.6203 19.8922 45.6203 17.1254C45.6203 14.6214 47.1158 12.4591 49.26 11.4857C49.3927 11.4254 49.528 11.3697 49.6655 11.3187L45.8992 7.7541L46.1742 7.46358L50.4076 11.4704L49.8045 11.6938C47.5971 12.5116 46.0203 14.6395 46.0203 17.1254C46.0203 19.7121 47.7278 21.911 50.0758 22.6491L50.3558 22.7372V44.0656C50.3558 44.8501 49.7174 45.4868 48.9345 45.4868C48.1503 45.4868 47.5133 44.8498 47.5133 44.0656V33.377C47.5133 30.7869 45.4039 28.6775 42.8138 28.6775H38.4705V8.1006C38.4705 5.50825 36.3623 3.4 33.7699 3.4H11.6651C9.07379 3.4 6.96447 5.50831 6.96447 8.1006V46.3334H5.9762C4.004 46.3334 2.4 47.9383 2.4 49.9107V56.155C2.4 56.8737 2.98147 57.4552 3.7002 57.4552H41.7359C42.4537 57.4552 43.0361 56.8736 43.0361 56.155V49.9107C43.0361 47.9384 41.4311 46.3334 39.4588 46.3334H38.4705V31.2778H42.8138C43.971 31.2778 44.9129 32.2197 44.9129 33.3769V44.0655C44.9129 46.2826 46.7174 48.0871 48.9345 48.0871C51.1517 48.0871 52.9562 46.2826 52.9562 44.0655V22.8104L53.2561 22.7329C55.7514 22.0881 57.6 19.817 57.6 17.1252C57.6 15.2425 56.6962 13.5657 55.2974 12.5056L55.2751 12.4967L47.9616 5.5749C47.4401 5.08135 46.6172 5.10398 46.1236 5.62554C45.63 6.14714 45.6526 6.96997 46.1742 7.46358L45.8992 7.7541C45.2171 7.10859 45.1876 6.03259 45.833 5.35058C46.4785 4.66857 47.5545 4.63899 48.2366 5.28439L55.4945 12.1536C57.0133 13.2837 58 15.0918 58 17.1252C58 20.0043 56.0232 22.431 53.3562 23.1201ZM35.8701 46.3334H9.56486V8.1006C9.56486 6.94231 10.5068 6.0004 11.6651 6.0004H33.7699C34.9295 6.0004 35.8701 6.94248 35.8701 8.1006V46.3334ZM40.4357 54.8548H5.0004V49.9107C5.0004 49.3718 5.4374 48.9338 5.9762 48.9338H39.4588C39.9982 48.9338 40.4357 49.3713 40.4357 49.9107V54.8548ZM51.8101 20.3147C50.055 20.3147 48.6207 18.8867 48.6207 17.1252C48.6207 15.3662 50.0511 13.9358 51.8101 13.9358C53.5692 13.9358 54.9996 15.3662 54.9996 17.1252C54.9996 18.8852 53.568 20.3147 51.8101 20.3147ZM35.4701 45.9334V8.1006C35.4701 7.16322 34.7084 6.4004 33.7699 6.4004H11.6651C10.7277 6.4004 9.96486 7.16322 9.96486 8.1006V45.9334H35.4701ZM40.0357 49.9107C40.0357 49.5922 39.7773 49.3338 39.4588 49.3338H5.9762C5.65883 49.3338 5.4004 49.5922 5.4004 49.9107V54.4548H40.0357V49.9107ZM49.0207 17.1252C49.0207 18.6653 50.2754 19.9147 51.8101 19.9147C53.3472 19.9147 54.5996 18.6642 54.5996 17.1252C54.5996 15.5871 53.3483 14.3358 51.8101 14.3358C50.272 14.3358 49.0207 15.5871 49.0207 17.1252Z" fill="white"/>
</svg>
