<svg viewBox="0 0 60 60" fill="none" xmlns="http://www.w3.org/2000/svg">
<g clip-path="url(#clip0_1_301)">
<rect width="60" height="60" fill="white"/>
<path d="M29.0322 39.8702C29.0322 39.7183 29.0322 39.5673 29.0167 39.4144L27.4277 17.3503C27.3157 15.7977 26.6209 14.3449 25.4827 13.2829C24.3446 12.221 22.8471 11.6286 21.2904 11.6243H19.355V9.62692C19.8628 9.55373 20.3474 9.36613 20.7721 9.07828C21.1968 8.79044 21.5505 8.40986 21.8067 7.9653C22.0628 7.52073 22.2145 7.02379 22.2505 6.51199C22.2865 6.00019 22.2057 5.4869 22.0143 5.01088L20.9721 2.40578C20.69 1.69438 20.2003 1.0844 19.5666 0.655296C18.933 0.226192 18.1848 -0.00214844 17.4195 1.59144e-05H11.6132C10.8476 -0.00219599 10.099 0.226211 9.465 0.655487C8.83102 1.08476 8.34099 1.69501 8.05876 2.40674L7.01749 5.01282C6.82643 5.48881 6.74597 6.00197 6.78218 6.51359C6.81838 7.02521 6.97031 7.52193 7.22649 7.96627C7.48267 8.4106 7.83642 8.79096 8.26105 9.07863C8.68569 9.3663 9.1701 9.55378 9.67776 9.62692V11.6243H7.74232C6.18584 11.6285 4.68848 12.2209 3.55032 13.2826C2.41216 14.3443 1.7173 15.7969 1.60502 17.3494L0.0160165 39.4134C0.000532941 39.5673 0.000532912 39.7183 0.000532912 39.8702C0.00205112 40.9102 0.2504 41.9349 0.72516 42.8602C1.19992 43.7855 1.88753 44.5849 2.73145 45.1927C1.72986 45.7509 0.935308 46.6176 0.466077 47.6638C-0.0031535 48.71 -0.121974 49.8798 0.127305 50.999L1.32922 56.4076C1.551 57.4287 2.11681 58.3426 2.93193 58.9964C3.74704 59.6501 4.76199 60.004 5.80687 59.9988H23.2259C24.2709 60.004 25.2859 59.6499 26.1011 58.996C26.9162 58.342 27.4819 57.4279 27.7035 56.4066L28.9054 50.999C29.1547 49.8798 29.0359 48.71 28.5667 47.6638C28.0974 46.6176 27.3029 45.7509 26.3013 45.1927C27.1452 44.5849 27.8328 43.7855 28.3076 42.8602C28.7824 41.9349 29.0307 40.9102 29.0322 39.8702ZM21.2904 39.8702C20.7048 40.3645 19.9646 40.6384 19.1982 40.6444H9.83453C9.06815 40.6384 8.328 40.3645 7.74232 39.8702V39.8083C7.74232 38.4776 7.70554 37.1422 7.68135 35.8087H21.3514C21.3272 37.1393 21.2904 38.4747 21.2904 39.8054V39.8702ZM21.3804 33.8703H7.65232C7.57425 30.9671 7.43716 28.064 7.24104 25.1608H21.7917C21.6001 28.064 21.463 30.9671 21.3804 33.8703ZM7.74232 42.1327C8.40122 42.4251 9.11369 42.5773 9.83453 42.5798H19.1982C19.9191 42.5773 20.6315 42.4251 21.2904 42.1327V44.5153H7.74232V42.1327ZM8.71004 6.27473C8.71027 6.08848 8.74573 5.90394 8.81455 5.73087L9.85679 3.12479C9.99597 2.77289 10.238 2.47115 10.5514 2.25897C10.8647 2.04679 11.2348 1.93405 11.6132 1.93546H17.4195C17.7978 1.93411 18.1677 2.04689 18.4809 2.25908C18.7941 2.47126 19.036 2.77297 19.175 3.12479L20.2172 5.7299C20.3065 5.95237 20.3398 6.19333 20.3143 6.43167C20.2888 6.67001 20.2052 6.89846 20.071 7.09702C19.9367 7.29557 19.7558 7.45817 19.5441 7.57058C19.3324 7.68299 19.0963 7.74178 18.8566 7.7418H10.1761C9.78729 7.74129 9.41454 7.58653 9.13967 7.31148C8.86481 7.03643 8.71029 6.66358 8.71004 6.27473ZM11.6132 9.67724H17.4195V11.6243H11.6132V9.67724ZM21.2904 13.5597C21.8158 13.559 22.3365 13.6575 22.8252 13.8501C22.4585 16.9584 22.173 20.0861 21.9378 23.2215H7.09491C6.85975 20.0861 6.57427 16.9584 6.20751 13.8501C6.69625 13.6575 7.21699 13.559 7.74232 13.5597H21.2904ZM1.94662 39.5538L3.53562 17.4897C3.59464 16.6633 3.89778 15.8732 4.40658 15.2194C5.33112 23.3822 5.79861 31.5903 5.80687 39.8054V44.4369C4.72677 44.2543 3.74594 43.6959 3.03764 42.8603C2.32934 42.0247 1.93914 40.9656 1.93598 39.8702C1.93598 39.7637 1.93598 39.6573 1.94662 39.5538ZM25.8145 55.9867C25.6864 56.577 25.3593 57.1055 24.888 57.4835C24.4168 57.8616 23.83 58.0663 23.2259 58.0634H5.80687C5.20274 58.0663 4.61595 57.8616 4.14471 57.4835C3.67348 57.1055 3.3464 56.577 3.21821 55.9867L2.20888 51.4442C3.04198 51.974 4.00861 52.2559 4.99592 52.257H24.0368C25.0241 52.2559 25.9908 51.974 26.8239 51.4442L25.8145 55.9867ZM23.7097 46.4507C24.4015 46.4526 25.0762 46.6662 25.643 47.0629C26.2097 47.4596 26.6414 48.0203 26.88 48.6697C26.594 49.1714 26.1803 49.5885 25.6809 49.8786C25.1816 50.1688 24.6144 50.3216 24.0368 50.3216H4.99592C4.41922 50.3207 3.85299 50.1675 3.35456 49.8774C2.85614 49.5873 2.44321 49.1707 2.15759 48.6697C2.39616 48.0203 2.82786 47.4596 3.39462 47.0629C3.96139 46.6662 4.63604 46.4526 5.32785 46.4507H23.7097ZM23.2259 44.4369V39.8054C23.2343 31.5894 23.7021 23.3803 24.6271 15.2165C25.1361 15.8709 25.4393 16.6617 25.4981 17.4887L27.0871 39.5528C27.0948 39.6592 27.0977 39.7657 27.0977 39.8721C27.0941 40.9674 26.7035 42.0261 25.9951 42.8613C25.2866 43.6965 24.3058 44.2546 23.2259 44.4369Z" />
<path d="M59.9995 39.8702C59.9995 39.7183 59.9947 39.5673 59.984 39.4144L58.395 17.3503C58.283 15.7977 57.5882 14.3449 56.45 13.2829C55.3118 12.221 53.8144 11.6286 52.2577 11.6243H50.3223V9.62692C50.8301 9.55373 51.3146 9.36613 51.7394 9.07828C52.1641 8.79044 52.5178 8.40986 52.7739 7.9653C53.0301 7.52073 53.1818 7.02379 53.2178 6.51199C53.2538 6.00019 53.173 5.4869 52.9816 5.01088L51.9393 2.40578C51.6573 1.69438 51.1676 1.0844 50.5339 0.655296C49.9003 0.226192 49.1521 -0.00214844 48.3868 1.59144e-05H42.5805C41.8148 -0.00219599 41.0663 0.226211 40.4323 0.655487C39.7983 1.08476 39.3083 1.69501 39.026 2.40674L37.9848 5.01282C37.7937 5.48881 37.7133 6.00197 37.7495 6.51359C37.7857 7.02521 37.9376 7.52193 38.1938 7.96627C38.45 8.4106 38.8037 8.79096 39.2283 9.07863C39.653 9.3663 40.1374 9.55378 40.645 9.62692V11.6243H38.7096C37.1531 11.6285 35.6558 12.2209 34.5176 13.2826C33.3794 14.3443 32.6846 15.7969 32.5723 17.3494L30.9833 39.4134C30.9727 39.5644 30.9678 39.7154 30.9678 39.8673C30.9693 40.9073 31.2177 41.932 31.6924 42.8573C32.1672 43.7826 32.8548 44.582 33.6987 45.1898C32.6971 45.748 31.9026 46.6147 31.4334 47.6609C30.9641 48.7071 30.8453 49.8769 31.0946 50.9961L32.2965 56.4047C32.5177 57.4263 33.0833 58.3409 33.8984 58.9952C34.7136 59.6495 35.7289 60.0039 36.7742 59.9988H54.1932C55.2382 60.004 56.2532 59.6499 57.0684 58.996C57.8835 58.342 58.4492 57.4279 58.6708 56.4066L59.8727 50.999C60.122 49.8798 60.0032 48.71 59.534 47.6638C59.0647 46.6176 58.2702 45.7509 57.2686 45.1927C58.1125 44.5849 58.8001 43.7855 59.2749 42.8602C59.7496 41.9349 59.998 40.9102 59.9995 39.8702ZM52.2577 39.8702C51.672 40.3645 50.9319 40.6384 50.1655 40.6444H40.8018C40.0354 40.6384 39.2953 40.3645 38.7096 39.8702V39.8083C38.7096 38.4776 38.6728 37.1422 38.6486 35.8087H52.3187C52.2945 37.1393 52.2577 38.4747 52.2577 39.8054V39.8702ZM52.3477 33.8703H38.6196C38.5415 30.9671 38.4044 28.064 38.2083 25.1608H52.759C52.5674 28.064 52.4303 30.9671 52.3477 33.8703ZM38.7096 42.1327C39.3685 42.4251 40.081 42.5773 40.8018 42.5798H50.1655C50.8864 42.5773 51.5988 42.4251 52.2577 42.1327V44.5153H38.7096V42.1327ZM39.6773 6.27473C39.6776 6.08848 39.713 5.90394 39.7818 5.73087L40.8241 3.12479C40.9633 2.77289 41.2053 2.47115 41.5187 2.25897C41.832 2.04679 42.2021 1.93405 42.5805 1.93546H48.3868C48.7651 1.93411 49.135 2.04689 49.4482 2.25908C49.7614 2.47126 50.0033 2.77297 50.1423 3.12479L51.1845 5.7299C51.2738 5.95237 51.3071 6.19333 51.2816 6.43167C51.2561 6.67001 51.1725 6.89846 51.0382 7.09702C50.904 7.29557 50.723 7.45817 50.5113 7.57058C50.2996 7.68299 50.0636 7.74178 49.8239 7.7418H41.1434C40.7546 7.74129 40.3818 7.58653 40.107 7.31148C39.8321 7.03643 39.6776 6.66358 39.6773 6.27473ZM42.5805 9.67724H48.3868V11.6243H42.5805V9.67724ZM52.2577 13.5597C52.783 13.559 53.3038 13.6575 53.7925 13.8501C53.4258 16.9584 53.1403 20.0861 52.9051 23.2215H38.0622C37.827 20.0861 37.5416 16.9584 37.1748 13.8501C37.6635 13.6575 38.1843 13.559 38.7096 13.5597H52.2577ZM32.9139 39.5538L34.5029 17.4897C34.5619 16.6633 34.8651 15.8732 35.3739 15.2194C36.2984 23.3822 36.7659 31.5903 36.7742 39.8054V44.4369C35.6941 44.2543 34.7132 43.6959 34.0049 42.8603C33.2966 42.0247 32.9064 40.9656 32.9033 39.8702C32.9033 39.7637 32.9033 39.6573 32.9139 39.5538ZM56.7818 55.9867C56.6536 56.577 56.3266 57.1055 55.8553 57.4835C55.3841 57.8616 54.7973 58.0663 54.1932 58.0634H36.7742C36.17 58.0663 35.5832 57.8616 35.112 57.4835C34.6408 57.1055 34.3137 56.577 34.1855 55.9867L33.1762 51.4442C34.0093 51.974 34.9759 52.2559 35.9632 52.257H55.0041C55.9914 52.2559 56.9581 51.974 57.7912 51.4442L56.7818 55.9867ZM54.677 46.4507C55.3688 46.4526 56.0435 46.6662 56.6103 47.0629C57.177 47.4596 57.6087 48.0203 57.8473 48.6697C57.5613 49.1714 57.1476 49.5885 56.6482 49.8786C56.1489 50.1688 55.5816 50.3216 55.0041 50.3216H35.9632C35.3865 50.3207 34.8203 50.1675 34.3218 49.8774C33.8234 49.5873 33.4105 49.1707 33.1249 48.6697C33.3634 48.0203 33.7951 47.4596 34.3619 47.0629C34.9287 46.6662 35.6033 46.4526 36.2951 46.4507H54.677ZM54.1932 44.4369V39.8054C54.2016 31.5894 54.6694 23.3803 55.5944 15.2165C56.1034 15.8709 56.4066 16.6617 56.4654 17.4887L58.0544 39.5528C58.0621 39.6592 58.065 39.7657 58.065 39.8721C58.0614 40.9674 57.6708 42.0261 56.9624 42.8613C56.2539 43.6965 55.2731 44.2546 54.1932 44.4369Z" />
</g>
<defs>
<clipPath id="clip0_1_301">
<rect width="60" height="60" fill="white"/>
</clipPath>
</defs>
</svg>
