<svg viewBox="0 0 60 60" fill="none" xmlns="http://www.w3.org/2000/svg">
<rect width="60" height="60" fill="white"/>
<path fill-rule="evenodd" clip-rule="evenodd" d="M6.28149 43.8884V18.5303L5.77219 18.3861C2.84521 17.5574 0.699951 14.8637 0.699951 11.6744C0.699951 7.82475 3.82469 4.70001 7.67437 4.70001C11.524 4.70001 14.6488 7.82475 14.6488 11.6744C14.6488 14.8636 12.5037 17.5572 9.57681 18.386L9.06754 18.5302V29.8163H28.6072V18.5303L28.0979 18.3861C25.1709 17.5574 23.0256 14.8637 23.0256 11.6744C23.0256 7.82475 26.1504 4.70001 30.0001 4.70001C33.8497 4.70001 36.9745 7.82475 36.9745 11.6744C36.9745 14.8636 34.8293 17.5572 31.9025 18.386L31.3932 18.5302V29.8163H49.535C50.3067 29.8163 50.9327 29.1904 50.9327 28.4187V18.5303L50.4234 18.3861C47.4965 17.5573 45.3513 14.8636 45.3513 11.6744C45.3513 7.82475 48.4761 4.70001 52.3257 4.70001C56.1754 4.70001 59.3002 7.82475 59.3002 11.6744C59.3002 14.8637 57.1549 17.5573 54.228 18.3861L53.7187 18.5303V28.4187C53.7187 30.7281 51.8467 32.6024 49.535 32.6024H31.3932V43.8884L31.9025 44.0327C34.8293 44.8615 36.9745 47.5551 36.9745 50.7443C36.9745 54.5939 33.8497 57.7187 30.0001 57.7187C26.1504 57.7187 23.0256 54.5939 23.0256 50.7443C23.0256 47.555 25.1709 44.8613 28.0979 44.0326L28.6072 43.8884V32.6024H9.06754V43.8884L9.57681 44.0327C12.5037 44.8615 14.6488 47.5551 14.6488 50.7443C14.6488 54.5939 11.524 57.7187 7.67437 57.7187C3.82469 57.7187 0.699951 54.5939 0.699951 50.7443C0.699951 47.555 2.84521 44.8613 5.77219 44.0326L6.28149 43.8884ZM11.8627 11.6744C11.8627 9.36225 9.98655 7.48606 7.67437 7.48606C5.36219 7.48606 3.486 9.36225 3.486 11.6744C3.486 13.9866 5.36219 15.8628 7.67437 15.8628C9.98655 15.8628 11.8627 13.9866 11.8627 11.6744ZM11.8627 50.7443C11.8627 48.4321 9.98655 46.5559 7.67437 46.5559C5.36219 46.5559 3.486 48.4321 3.486 50.7443C3.486 53.0564 5.36219 54.9326 7.67437 54.9326C9.98655 54.9326 11.8627 53.0564 11.8627 50.7443ZM34.1884 11.6744C34.1884 9.36225 32.3122 7.48606 30.0001 7.48606C27.6879 7.48606 25.8117 9.36225 25.8117 11.6744C25.8117 13.9866 27.6879 15.8628 30.0001 15.8628C32.3122 15.8628 34.1884 13.9866 34.1884 11.6744ZM34.1884 50.7443C34.1884 48.4321 32.3122 46.5559 30.0001 46.5559C27.6879 46.5559 25.8117 48.4321 25.8117 50.7443C25.8117 53.0564 27.6879 54.9326 30.0001 54.9326C32.3122 54.9326 34.1884 53.0564 34.1884 50.7443ZM56.5141 11.6744C56.5141 9.36225 54.6379 7.48606 52.3257 7.48606C50.0136 7.48606 48.1374 9.36225 48.1374 11.6744C48.1374 13.9866 50.0136 15.8628 52.3257 15.8628C54.6379 15.8628 56.5141 13.9866 56.5141 11.6744ZM45.3513 50.7443C45.3513 46.8946 48.4761 43.7698 52.3257 43.7698C56.1754 43.7698 59.3002 46.8946 59.3002 50.7443C59.3002 54.5939 56.1754 57.7187 52.3257 57.7187C48.4761 57.7187 45.3513 54.5939 45.3513 50.7443ZM56.5141 50.7443C56.5141 48.4321 54.6379 46.5559 52.3257 46.5559C50.0136 46.5559 48.1374 48.4321 48.1374 50.7443C48.1374 53.0564 50.0136 54.9326 52.3257 54.9326C54.6379 54.9326 56.5141 53.0564 56.5141 50.7443Z" />
</svg>
