<svg width="24" height="24" viewBox="0 0 24 24" fill="none" xmlns="http://www.w3.org/2000/svg">
<path d="M13.5439 10.4559C12.7248 9.63713 11.6141 9.17719 10.4559 9.17719C9.29779 9.17719 8.18707 9.63713 7.36798 10.4559L4.27903 13.5438C3.45992 14.3629 2.99976 15.4739 2.99976 16.6323C2.99976 17.7907 3.45992 18.9016 4.27903 19.7207C5.09814 20.5398 6.20909 21 7.36748 21C8.52587 21 9.63682 20.5398 10.4559 19.7207L11.9999 18.1767M10.456 13.5439C11.2751 14.3626 12.3858 14.8226 13.5439 14.8226C14.702 14.8226 15.8128 14.3626 16.6319 13.5439L19.7208 10.4559C20.5399 9.63682 21.0001 8.52587 21.0001 7.36748C21.0001 6.20909 20.5399 5.09814 19.7208 4.27903C18.9017 3.45993 17.7908 2.99976 16.6324 2.99976C15.474 2.99976 14.363 3.45993 13.5439 4.27903L11.9999 5.82301" stroke="#43424A" stroke-width="2" stroke-linecap="round" stroke-linejoin="round"/>
</svg>
