<svg width="20" height="20" viewBox="0 0 20 20" fill="none" xmlns="http://www.w3.org/2000/svg">
<path fill-rule="evenodd" clip-rule="evenodd" d="M6.92918 2.47033C5.65796 2.32825 4.34205 2.32825 3.07084 2.47033C2.76195 2.50485 2.51835 2.74944 2.48361 3.0465C2.3318 4.34444 2.3318 5.65565 2.48361 6.95359C2.51835 7.25065 2.76195 7.49524 3.07084 7.52976C4.34206 7.67184 5.65796 7.67184 6.92918 7.52976C7.23807 7.49524 7.48167 7.25065 7.51641 6.95359C7.66822 5.65565 7.66822 4.34444 7.51641 3.0465C7.48167 2.74944 7.23807 2.50485 6.92918 2.47033ZM2.90423 0.979609C4.28617 0.825156 5.71384 0.825156 7.09579 0.979609C8.08663 1.09035 8.88907 1.87034 9.00626 2.87225C9.1716 4.28596 9.1716 5.71413 9.00626 7.12784C8.88907 8.12975 8.08663 8.90974 7.09579 9.02048C5.71384 9.17493 4.28617 9.17493 2.90423 9.02048C1.91339 8.90974 1.11094 8.12975 0.993761 7.12784C0.828414 5.71413 0.828414 4.28596 0.993761 2.87225C1.11094 1.87034 1.91339 1.09035 2.90423 0.979609Z" fill="#4A4C4E"/>
<path fill-rule="evenodd" clip-rule="evenodd" d="M6.92918 12.4703C5.65796 12.3282 4.34205 12.3282 3.07084 12.4703C2.76195 12.5049 2.51835 12.7494 2.48361 13.0465C2.3318 14.3444 2.3318 15.6557 2.48361 16.9536C2.51835 17.2506 2.76195 17.4952 3.07084 17.5298C4.34206 17.6718 5.65796 17.6718 6.92918 17.5298C7.23807 17.4952 7.48167 17.2506 7.51641 16.9536C7.66822 15.6556 7.66822 14.3444 7.51641 13.0465C7.48167 12.7494 7.23807 12.5049 6.92918 12.4703ZM2.90423 10.9796C4.28617 10.8252 5.71384 10.8252 7.09579 10.9796C8.08663 11.0904 8.88907 11.8703 9.00626 12.8722C9.1716 14.286 9.1716 15.7141 9.00626 17.1278C8.88907 18.1298 8.08663 18.9097 7.09579 19.0205C5.71384 19.1749 4.28617 19.1749 2.90423 19.0205C1.91339 18.9097 1.11094 18.1298 0.993761 17.1278C0.828414 15.7141 0.828414 14.286 0.993761 12.8722C1.11094 11.8703 1.91339 11.0904 2.90423 10.9796Z" fill="#4A4C4E"/>
<path fill-rule="evenodd" clip-rule="evenodd" d="M16.9292 2.47033C15.658 2.32825 14.3421 2.32825 13.0708 2.47033C12.7619 2.50485 12.5183 2.74944 12.4836 3.0465C12.3318 4.34444 12.3318 5.65565 12.4836 6.95359C12.5183 7.25065 12.7619 7.49524 13.0708 7.52976C14.3421 7.67184 15.658 7.67184 16.9292 7.52976C17.2381 7.49524 17.4817 7.25065 17.5164 6.95359C17.6682 5.65565 17.6682 4.34444 17.5164 3.0465C17.4817 2.74944 17.2381 2.50485 16.9292 2.47033ZM12.9042 0.979609C14.2862 0.825156 15.7138 0.825156 17.0958 0.979609C18.0866 1.09035 18.8891 1.87034 19.0063 2.87225C19.1716 4.28596 19.1716 5.71413 19.0063 7.12784C18.8891 8.12975 18.0866 8.90974 17.0958 9.02048C15.7138 9.17493 14.2862 9.17493 12.9042 9.02048C11.9134 8.90974 11.1109 8.12975 10.9938 7.12784C10.8284 5.71413 10.8284 4.28596 10.9938 2.87225C11.1109 1.87034 11.9134 1.09035 12.9042 0.979609Z" fill="#4A4C4E"/>
<path fill-rule="evenodd" clip-rule="evenodd" d="M16.9292 12.4703C15.658 12.3282 14.3421 12.3282 13.0708 12.4703C12.7619 12.5049 12.5183 12.7494 12.4836 13.0465C12.3318 14.3444 12.3318 15.6557 12.4836 16.9536C12.5183 17.2506 12.7619 17.4952 13.0708 17.5298C14.3421 17.6718 15.658 17.6718 16.9292 17.5298C17.2381 17.4952 17.4817 17.2506 17.5164 16.9536C17.6682 15.6556 17.6682 14.3444 17.5164 13.0465C17.4817 12.7494 17.2381 12.5049 16.9292 12.4703ZM12.9042 10.9796C14.2862 10.8252 15.7138 10.8252 17.0958 10.9796C18.0866 11.0904 18.8891 11.8703 19.0063 12.8722C19.1716 14.286 19.1716 15.7141 19.0063 17.1278C18.8891 18.1298 18.0866 18.9097 17.0958 19.0205C15.7138 19.1749 14.2862 19.1749 12.9042 19.0205C11.9134 18.9097 11.1109 18.1298 10.9938 17.1278C10.8284 15.7141 10.8284 14.286 10.9938 12.8722C11.1109 11.8703 11.9134 11.0904 12.9042 10.9796Z" fill="#4A4C4E"/>
</svg>
