<svg width="22" height="22" viewBox="0 0 22 22" fill="none" xmlns="http://www.w3.org/2000/svg">
<path d="M10.9999 1.4C13.546 1.4 15.9878 2.41143 17.7881 4.21178C19.5885 6.01213 20.5999 8.45392 20.5999 11C20.5999 13.5461 19.5885 15.9879 17.7881 17.7882C15.9878 19.5886 13.546 20.6 10.9999 20.6C8.45382 20.6 6.01203 19.5886 4.21168 17.7882C2.41133 15.9879 1.3999 13.5461 1.3999 11C1.3999 8.45392 2.41133 6.01213 4.21168 4.21178C6.01203 2.41143 8.45382 1.4 10.9999 1.4ZM10.9999 2.6C9.8968 2.6 8.8045 2.81727 7.78536 3.23941C6.76623 3.66155 5.84022 4.28029 5.06021 5.0603C4.28019 5.84032 3.66145 6.76633 3.23931 7.78546C2.81717 8.8046 2.5999 9.8969 2.5999 11C2.5999 12.1031 2.81717 13.1954 3.23931 14.2145C3.66145 15.2337 4.28019 16.1597 5.06021 16.9397C5.84022 17.7197 6.76623 18.3385 7.78536 18.7606C8.8045 19.1827 9.8968 19.4 10.9999 19.4C13.2277 19.4 15.3643 18.515 16.9396 16.9397C18.5149 15.3644 19.3999 13.2278 19.3999 11C19.3999 8.77218 18.5149 6.63561 16.9396 5.0603C15.3643 3.485 13.2277 2.6 10.9999 2.6ZM10.9999 15.2C11.2386 15.2 11.4675 15.2948 11.6363 15.4636C11.8051 15.6324 11.8999 15.8613 11.8999 16.1C11.8999 16.3387 11.8051 16.5676 11.6363 16.7364C11.4675 16.9052 11.2386 17 10.9999 17C10.7612 17 10.5323 16.9052 10.3635 16.7364C10.1947 16.5676 10.0999 16.3387 10.0999 16.1C10.0999 15.8613 10.1947 15.6324 10.3635 15.4636C10.5323 15.2948 10.7612 15.2 10.9999 15.2ZM10.9999 5.6C11.6095 5.60008 12.2047 5.78589 12.7061 6.13269C13.2075 6.47949 13.5913 6.97081 13.8065 7.54122C14.0216 8.11163 14.0579 8.73406 13.9104 9.3256C13.763 9.91714 13.4388 10.4497 12.9811 10.8524L12.7963 11.0024L12.5335 11.198L12.4291 11.2844C12.3635 11.3405 12.301 11.4002 12.2419 11.4632C11.8351 11.8952 11.5999 12.4904 11.5999 13.4C11.5999 13.5591 11.5367 13.7117 11.4242 13.8243C11.3116 13.9368 11.159 14 10.9999 14C10.8408 14 10.6882 13.9368 10.5756 13.8243C10.4631 13.7117 10.3999 13.5591 10.3999 13.4C10.3999 12.1856 10.7515 11.2976 11.3659 10.6424C11.4981 10.5024 11.6409 10.3728 11.7931 10.2548L12.0895 10.0328L12.2311 9.9128C12.4488 9.70865 12.6124 9.45355 12.707 9.17048C12.8017 8.88741 12.8244 8.58525 12.7733 8.29119C12.7221 7.99714 12.5986 7.72042 12.4139 7.48595C12.2292 7.25148 11.9892 7.06661 11.7153 6.94799C11.4414 6.82937 11.1423 6.78072 10.8449 6.80642C10.5476 6.83212 10.2613 6.93136 10.0118 7.09521C9.7623 7.25905 9.55748 7.48237 9.41576 7.74505C9.27404 8.00773 9.19986 8.30153 9.1999 8.6C9.20006 8.75913 9.137 8.91181 9.02459 9.02444C8.91218 9.13708 8.75963 9.20044 8.6005 9.2006C8.44137 9.20076 8.2887 9.1377 8.17606 9.02529C8.06343 8.91288 8.00006 8.76033 7.9999 8.6012C7.99975 8.20714 8.07723 7.8169 8.22792 7.45278C8.37861 7.08867 8.59957 6.75781 8.87816 6.47911C9.15675 6.2004 9.48752 5.97932 9.85157 5.82848C10.2156 5.67764 10.6058 5.6 10.9999 5.6Z" />
</svg>
