<svg width="22" height="22" viewBox="0 0 22 22" fill="none" xmlns="http://www.w3.org/2000/svg">
<path d="M2.25 10.3438H19.75" stroke-width="1.5" stroke-linecap="round" stroke-linejoin="round"/>
<path d="M18.5 15.5938V17.5625C18.5 17.7365 18.4342 17.9035 18.3169 18.0265C18.1997 18.1496 18.0408 18.2188 17.875 18.2188H16C15.8342 18.2188 15.6753 18.1496 15.5581 18.0265C15.4408 17.9035 15.375 17.7365 15.375 17.5625V15.5938" stroke-width="1.5" stroke-linecap="round" stroke-linejoin="round"/>
<path d="M6.625 15.5938V17.5625C6.625 17.7365 6.55915 17.9035 6.44194 18.0265C6.32473 18.1496 6.16576 18.2188 6 18.2188H4.125C3.95924 18.2188 3.80027 18.1496 3.68306 18.0265C3.56585 17.9035 3.5 17.7365 3.5 17.5625V15.5938" stroke-width="1.5" stroke-linecap="round" stroke-linejoin="round"/>
<path d="M6 12.9688H7.25" stroke-width="1.5" stroke-linecap="round" stroke-linejoin="round"/>
<path d="M14.75 12.9688H16" stroke-width="1.5" stroke-linecap="round" stroke-linejoin="round"/>
<path d="M18.5 10.3438L16.1641 4.83125C16.1156 4.71463 16.0359 4.61532 15.9346 4.54541C15.8334 4.4755 15.7149 4.43801 15.5938 4.4375H6.40625C6.28507 4.43801 6.16664 4.4755 6.06538 4.54541C5.96413 4.61532 5.88441 4.71463 5.83594 4.83125L3.5 10.3438V15.5938H18.5V10.3438Z"  stroke-width="1.5" stroke-linecap="round" stroke-linejoin="round"/>
</svg>
