<svg width="22" height="22" viewBox="0 0 22 22" fill="none" xmlns="http://www.w3.org/2000/svg">
<path d="M14.25 5.5C14.25 7.29493 12.7949 8.75 11 8.75V10.25C13.6234 10.25 15.75 8.12335 15.75 5.5H14.25ZM11 8.75C9.20507 8.75 7.75 7.29493 7.75 5.5H6.25C6.25 8.12335 8.37665 10.25 11 10.25V8.75ZM7.75 5.5C7.75 3.70507 9.20507 2.25 11 2.25V0.75C8.37665 0.75 6.25 2.87665 6.25 5.5H7.75ZM11 2.25C12.7949 2.25 14.25 3.70507 14.25 5.5H15.75C15.75 2.87665 13.6234 0.75 11 0.75V2.25ZM8 13.25H14V11.75H8V13.25ZM14 19.75H8V21.25H14V19.75ZM8 19.75C6.20507 19.75 4.75 18.2949 4.75 16.5H3.25C3.25 19.1234 5.37665 21.25 8 21.25V19.75ZM17.25 16.5C17.25 18.2949 15.7949 19.75 14 19.75V21.25C16.6234 21.25 18.75 19.1234 18.75 16.5H17.25ZM14 13.25C15.7949 13.25 17.25 14.7051 17.25 16.5H18.75C18.75 13.8766 16.6234 11.75 14 11.75V13.25ZM8 11.75C5.37665 11.75 3.25 13.8766 3.25 16.5H4.75C4.75 14.7051 6.20507 13.25 8 13.25V11.75Z" />
</svg>
