<svg width="22" height="22" viewBox="0 0 22 22" fill="none" xmlns="http://www.w3.org/2000/svg">
<path fill-rule="evenodd" clip-rule="evenodd" d="M10.5504 8.49997C11.9394 8.49997 13.0651 9.61909 13.0651 11C13.0651 12.3808 11.9394 13.5 10.5504 13.5C9.16135 13.5 8.03564 12.3808 8.03564 11C8.03564 9.61909 9.16135 8.49997 10.5504 8.49997Z" stroke-width="1.5" stroke-linecap="round" stroke-linejoin="round"/>
<path fill-rule="evenodd" clip-rule="evenodd" d="M18.7661 6.25025C18.0785 5.05799 16.5564 4.65004 15.3667 5.33852C14.3319 5.93613 13.0386 5.18838 13.0386 3.99218C13.0386 2.61619 11.9239 1.5 10.5498 1.5C9.17561 1.5 8.06091 2.61619 8.06091 3.99218C8.06091 5.18838 6.76765 5.93613 5.73383 5.33852C4.54316 4.65004 3.02104 5.05799 2.33348 6.25025C1.6469 7.4425 2.05431 8.96665 3.24497 9.65415C4.27879 10.2527 4.27879 11.7473 3.24497 12.3459C2.05431 13.0343 1.6469 14.5585 2.33348 15.7498C3.02104 16.942 4.54316 17.35 5.73284 16.6625H5.73383C6.76765 16.0639 8.06091 16.8116 8.06091 18.0078C8.06091 19.3838 9.17561 20.5 10.5498 20.5C11.9239 20.5 13.0386 19.3838 13.0386 18.0078C13.0386 16.8116 14.3319 16.0639 15.3667 16.6625C16.5564 17.35 18.0785 16.942 18.7661 15.7498C19.4536 14.5585 19.0452 13.0343 17.8555 12.3459H17.8546C16.8207 11.7473 16.8207 10.2527 17.8555 9.65415C19.0452 8.96665 19.4536 7.4425 18.7661 6.25025Z" stroke-width="1.5" stroke-linecap="round" stroke-linejoin="round"/>
</svg>
