<svg width="22" height="23" viewBox="0 0 22 23" fill="none" xmlns="http://www.w3.org/2000/svg">
<path d="M2.25 10.8438H3.5M19.75 10.8438H18.5" stroke-width="1.5" stroke-linecap="round" stroke-linejoin="round"/>
<path d="M18.5 16.0938V18.0625C18.5 18.2365 18.4342 18.4035 18.3169 18.5265C18.1997 18.6496 18.0408 18.7188 17.875 18.7188H16C15.8342 18.7188 15.6753 18.6496 15.5581 18.5265C15.4408 18.4035 15.375 18.2365 15.375 18.0625V16.0938" stroke-width="1.5" stroke-linecap="round" stroke-linejoin="round"/>
<path d="M6.625 16.0938V18.0625C6.625 18.2365 6.55915 18.4035 6.44194 18.5265C6.32473 18.6496 6.16576 18.7188 6 18.7188H4.125C3.95924 18.7188 3.80027 18.6496 3.68306 18.5265C3.56585 18.4035 3.5 18.2365 3.5 18.0625V16.0938" stroke-width="1.5" stroke-linecap="round" stroke-linejoin="round"/>
<path d="M18.5 10.8438L16.1641 5.33125C16.1156 5.21463 16.0359 5.11532 15.9346 5.04541C15.8334 4.9755 15.7149 4.93801 15.5938 4.9375H6.40625C6.28507 4.93801 6.16664 4.9755 6.06538 5.04541C5.96413 5.11532 5.88441 5.21463 5.83594 5.33125L3.5 10.8438V16.0938H18.5V10.8438Z" stroke-width="1.5" stroke-linecap="round" stroke-linejoin="round"/>
<path d="M9 11.7C9 12.3627 9.59695 12.9 10.3333 12.9H11.6667C12.403 12.9 13 12.3627 13 11.7C13 11.0373 12.403 10.5 11.6667 10.5H10.3333C9.59695 10.5 9 9.96274 9 9.3C9 8.63726 9.59695 8.1 10.3333 8.1H11.6667C12.403 8.1 13 8.63726 13 9.3M11 7.5V13.5" stroke-linecap="round" stroke-linejoin="round"/>
</svg>
