<svg width="40" height="40" viewBox="0 0 40 40" fill="none" xmlns="http://www.w3.org/2000/svg">
<path d="M29 21C29.5523 21 30 20.5523 30 20C30 19.4477 29.5523 19 29 19V21ZM18.4238 19C17.8715 19 17.4238 19.4477 17.4238 20C17.4238 20.5523 17.8715 21 18.4238 21V19ZM18.4238 22.9421H17.4238H18.4238ZM15.3279 24.5698L15.963 23.7974L15.3279 24.5698ZM15.3279 15.4302L15.963 16.2026L15.3279 15.4302ZM18.4238 17.0579H19.4238H18.4238ZM11.75 18.3723L12.3851 19.1447L11.75 18.3723ZM11.75 21.6277L11.1148 22.4001L11.75 21.6277ZM29 19L18.4238 19V21L29 21V19ZM12.3851 19.1447L15.963 16.2026L14.6927 14.6578L11.1148 17.5999L12.3851 19.1447ZM17.4238 17.0579L17.4238 22.9421H19.4238V17.0579H17.4238ZM15.963 23.7974L12.3851 20.8553L11.1148 22.4001L14.6927 25.3422L15.963 23.7974ZM17.4238 22.9421C17.4238 23.4159 17.1781 23.7457 16.8847 23.9C16.5984 24.0505 16.2621 24.0433 15.963 23.7974L14.6927 25.3422C16.7117 27.0024 19.4238 25.3568 19.4238 22.9421H17.4238ZM15.963 16.2026C16.2621 15.9567 16.5984 15.9495 16.8847 16.1C17.1781 16.2543 17.4238 16.5841 17.4238 17.0579H19.4238C19.4238 14.6432 16.7117 12.9976 14.6927 14.6578L15.963 16.2026ZM11.1148 17.5999C9.62839 18.8222 9.62839 21.1778 11.1148 22.4001L12.3851 20.8553C11.8716 20.4331 11.8716 19.5669 12.3851 19.1447L11.1148 17.5999Z" />
</svg>
