<svg width="40" height="40" viewBox="0 0 40 40" fill="none" xmlns="http://www.w3.org/2000/svg">
<path d="M15.2178 28.9384L15.0614 29.9261H15.0614L15.2178 28.9384ZM11.0616 24.7822L12.0492 24.6257L11.0616 24.7822ZM28.9384 24.7822L29.9261 24.9386V24.9386L28.9384 24.7822ZM24.7822 28.9384L24.9386 29.9261H24.9386L24.7822 28.9384ZM28.7999 18.3994C28.4682 17.9578 27.8414 17.8687 27.3998 18.2004C26.9582 18.5321 26.8691 19.159 27.2008 19.6006L28.7999 18.3994ZM12.7992 19.6006C13.1309 19.159 13.0418 18.5321 12.6002 18.2004C12.1586 17.8687 11.5318 17.9578 11.2001 18.3994L12.7992 19.6006ZM19 25C19 25.5523 19.4477 26 20 26C20.5523 26 21 25.5523 21 25H19ZM15.2164 14.3787C14.8733 14.8115 14.9459 15.4404 15.3787 15.7836C15.8115 16.1267 16.4404 16.0541 16.7836 15.6213L15.2164 14.3787ZM17.3978 13.237L16.6143 12.6157V12.6157L17.3978 13.237ZM22.6022 13.237L23.3857 12.6157L22.6022 13.237ZM23.2164 15.6213C23.5596 16.0541 24.1885 16.1267 24.6213 15.7836C25.0541 15.4404 25.1267 14.8115 24.7836 14.3787L23.2164 15.6213ZM19.7493 11.0199L19.592 10.0323L19.592 10.0323L19.7493 11.0199ZM20.2507 11.0199L20.408 10.0323L20.408 10.0323L20.2507 11.0199ZM28 22V23H30V22H28ZM23 28H17V30H23V28ZM12 23V22H10V23H12ZM17 28C16.0328 28 15.6656 27.9969 15.3743 27.9508L15.0614 29.9261C15.5474 30.0031 16.1092 30 17 30V28ZM10 23C10 23.8908 9.9969 24.4526 10.0739 24.9386L12.0492 24.6257C12.0031 24.3344 12 23.9672 12 23H10ZM15.3743 27.9508C13.6627 27.6797 12.3203 26.3373 12.0492 24.6257L10.0739 24.9386C10.4805 27.506 12.494 29.5195 15.0614 29.9261L15.3743 27.9508ZM28 23C28 23.9672 27.9969 24.3344 27.9508 24.6257L29.9261 24.9386C30.0031 24.4526 30 23.8908 30 23H28ZM23 30C23.8908 30 24.4526 30.0031 24.9386 29.9261L24.6257 27.9508C24.3344 27.9969 23.9672 28 23 28V30ZM27.9508 24.6257C27.6797 26.3373 26.3373 27.6797 24.6257 27.9508L24.9386 29.9261C27.506 29.5195 29.5195 27.506 29.9261 24.9386L27.9508 24.6257ZM30 22C30 20.6504 29.5532 19.4023 28.7999 18.3994L27.2008 19.6006C27.7029 20.269 28 21.0984 28 22H30ZM12 22C12 21.0984 12.2971 20.269 12.7992 19.6006L11.2001 18.3994C10.4468 19.4023 10 20.6504 10 22H12ZM21 25V12H19V25H21ZM16.7836 15.6213L18.1814 13.8583L16.6143 12.6157L15.2164 14.3787L16.7836 15.6213ZM21.8186 13.8583L23.2164 15.6213L24.7836 14.3787L23.3857 12.6157L21.8186 13.8583ZM18.1814 13.8583C18.754 13.1362 19.1313 12.6628 19.4453 12.3476C19.7549 12.0368 19.8783 12.012 19.9067 12.0074L19.592 10.0323C18.941 10.1361 18.446 10.5169 18.0284 10.9361C17.6152 11.3508 17.1565 11.9319 16.6143 12.6157L18.1814 13.8583ZM23.3857 12.6157C22.8435 11.9319 22.3848 11.3508 21.9716 10.9361C21.554 10.5169 21.059 10.1361 20.408 10.0323L20.0933 12.0074C20.1217 12.012 20.2451 12.0368 20.5547 12.3476C20.8687 12.6628 21.246 13.1362 21.8186 13.8583L23.3857 12.6157ZM19.9067 12.0074C19.9381 12.0024 19.9692 12 20 12V10C19.8634 10 19.7271 10.0108 19.592 10.0323L19.9067 12.0074ZM20 12C20.0308 12 20.0619 12.0024 20.0933 12.0074L20.408 10.0323C20.2729 10.0108 20.1366 10 20 10V12ZM21 12V11H19V12H21Z" />
</svg>
