<svg xmlns="http://www.w3.org/2000/svg" version="1.1" xmlns:xlink="http://www.w3.org/1999/xlink" xmlns:svgjs="http://svgjs.dev/svgjs" width="1000" height="1000" viewBox="0 0 1000 1000"><rect width="1000" height="1000" fill="#ffffff"></rect><g transform="matrix(0.7,0,0,0.7,149.65000000000003,149.6500000000001)"><svg viewBox="0 0 280 280" data-background-color="#1571f8" preserveAspectRatio="xMidYMid meet" height="1000" width="1000" xmlns="http://www.w3.org/2000/svg" xmlns:xlink="http://www.w3.org/1999/xlink"><g id="tight-bounds" transform="matrix(1,0,0,1,0.13999999999998636,0.13999999999995794)"><svg viewBox="0 0 279.72 279.72" height="279.72" width="279.72"><g><svg viewBox="0 0 279.72 279.72" height="279.72" width="279.72"><g><svg viewBox="0 0 279.72 279.72" height="279.72" width="279.72"><g id="textblocktransform"><svg viewBox="0 0 279.72 279.72" height="279.72" width="279.72" id="textblock"><g><svg viewBox="0 0 279.72 279.72" height="279.72" width="279.72"><g transform="matrix(1,0,0,1,57.446704652707865,57.446704652707865)"><svg viewBox="0 0 164.8265906945843 164.8265906945843" height="164.8265906945843" width="164.8265906945843"><g><circle r="82" cx="82.41329534729215" cy="82.41329534729215" fill="#000000" data-fill-palette-color="accent"></circle><svg xmlns="http://www.w3.org/2000/svg" xmlns:xlink="http://www.w3.org/1999/xlink" version="1.1" x="24.723988604187646" y="24.72398860418764" viewBox="0 0 16 16" style="enable-background:new 0 0 16 16;" xml:space="preserve" height="115.378613486209" width="115.378613486209" class="icon-o-0" data-fill-palette-color="quaternary" id="o-0"><g fill="#0c1d36" data-fill-palette-color="quaternary"><path d="M12 1H4V0H0v4h1v8H0v4h4v-1h8v1h4v-4h-1V4h1V0h-4V1zM13 12h-1v1H4v-1H3V4h1V3h8v1h1V12z" fill="#ffffff" data-fill-palette-color="quaternary"></path></g></svg></g></svg></g><g><path d="M27.467 111.988l-0.657 1.742-26.336-9.939 0.014-0.037 22.825-5.898-0.401 0.72-13.143-19.417 0.014-0.037 26.337 9.938-0.658 1.742-22.24-8.393 0.933 0.18 11.067 16.45-0.025 0.066-19.204 5.112-0.691-0.594z" fill="#000000" data-fill-palette-color="primary"></path><path d="M21.043 62.924l1.388-1.712 26.44 8.341-0.784 0.712-13.669-23.847 1.369-1.689 15.011 27.241z" fill="#000000" data-fill-palette-color="primary"></path><path d="M49.231 32.939l5.049-3.867c1.358-1.04 2.721-1.716 4.088-2.028 1.372-0.316 2.69-0.234 3.952 0.244 1.266 0.484 2.426 1.413 3.478 2.787v0c0.628 0.82 1.108 1.712 1.44 2.674 0.336 0.968 0.458 1.977 0.367 3.028-0.095 1.045-0.439 2.086-1.031 3.122-0.588 1.042-1.497 2.034-2.728 2.977v0l-3.388 2.594 7.025 9.173-1.51 1.156zM59.351 43.024l3.387-2.594c1.065-0.816 1.822-1.666 2.269-2.549 0.451-0.878 0.675-1.734 0.671-2.568 0-0.828-0.133-1.597-0.398-2.306-0.265-0.71-0.585-1.31-0.96-1.8v0c-0.534-0.698-1.134-1.249-1.798-1.653-0.67-0.4-1.387-0.641-2.151-0.723-0.759-0.086-1.548-0.002-2.367 0.253-0.813 0.251-1.63 0.691-2.45 1.319v0l-3.699 2.834z" fill="#000000" data-fill-palette-color="primary"></path><path d="M97.271 7.464l5.857-1.664c2.562-0.728 4.697-0.763 6.405-0.105 1.708 0.659 2.897 2.169 3.568 4.531v0c0.332 1.168 0.41 2.3 0.233 3.397-0.168 1.101-0.607 2.087-1.314 2.958-0.708 0.871-1.696 1.58-2.963 2.129v0l-0.437-0.838c1.396-0.292 2.742-0.305 4.038-0.039 1.294 0.26 2.423 0.783 3.386 1.57 0.965 0.793 1.634 1.848 2.008 3.164v0c0.339 1.194 0.406 2.298 0.199 3.313-0.209 1.008-0.623 1.917-1.244 2.728-0.616 0.803-1.379 1.491-2.291 2.063-0.913 0.566-1.918 1.006-3.015 1.318v0l-6.902 1.961zM102.622 19.335l4.889-1.389c1.891-0.537 3.108-1.434 3.651-2.69 0.543-1.256 0.599-2.643 0.167-4.16v0c-0.537-1.891-1.478-3.088-2.82-3.593-1.337-0.506-2.937-0.494-4.803 0.037v0l-4.104 1.166zM106.152 31.756l4.995-1.42c1.194-0.339 2.236-0.845 3.127-1.516 0.884-0.67 1.51-1.486 1.878-2.449 0.375-0.964 0.396-2.031 0.064-3.198v0c-0.369-1.297-1-2.241-1.893-2.831-0.895-0.597-1.903-0.927-3.023-0.993-1.122-0.072-2.219 0.045-3.291 0.349v0l-4.889 1.39z" fill="#000000" data-fill-palette-color="primary"></path><path d="M131.237 28.867l-1.902 0.027 11.235-28.892 0.161-0.002 12.031 28.568-2.133 0.03-10.48-25.56 1.308-0.763zM134.371 19.715l0.438-1.798 12.217-0.169 0.568 1.783z" fill="#000000" data-fill-palette-color="primary"></path><path d="M184.043 8.856l-1.056 1.27c-0.687-0.563-1.56-1.142-2.619-1.737-1.052-0.594-2.143-1.025-3.272-1.293v0c-1.763-0.418-3.277-0.311-4.544 0.32-1.265 0.624-2.056 1.606-2.373 2.944v0c-0.238 1.005-0.133 1.913 0.317 2.722 0.443 0.808 1.099 1.56 1.968 2.256 0.876 0.697 1.815 1.392 2.816 2.084v0c0.804 0.535 1.592 1.108 2.365 1.719 0.774 0.604 1.445 1.28 2.012 2.028 0.567 0.748 0.955 1.599 1.164 2.551 0.215 0.954 0.174 2.058-0.123 3.312v0c-0.353 1.489-1.017 2.72-1.992 3.696-0.976 0.975-2.169 1.631-3.579 1.965-1.402 0.33-2.935 0.297-4.6-0.097v0c-1.332-0.316-2.504-0.766-3.517-1.351-1.019-0.586-1.885-1.198-2.596-1.835-0.712-0.631-1.275-1.154-1.687-1.568v0l1.232-1.312c0.459 0.536 1.036 1.1 1.729 1.693 0.702 0.587 1.483 1.131 2.344 1.631 0.869 0.495 1.766 0.853 2.694 1.072v0c1.084 0.257 2.185 0.294 3.304 0.111 1.121-0.19 2.117-0.64 2.988-1.35 0.872-0.711 1.465-1.732 1.781-3.064v0c0.303-1.28 0.236-2.392-0.202-3.337-0.44-0.938-1.093-1.776-1.96-2.512-0.86-0.735-1.797-1.436-2.811-2.104v0c-0.778-0.529-1.551-1.078-2.32-1.645-0.769-0.568-1.441-1.193-2.017-1.875-0.583-0.683-0.997-1.436-1.244-2.259-0.238-0.829-0.235-1.759 0.01-2.791v0c0.305-1.286 0.896-2.328 1.775-3.127 0.879-0.798 1.94-1.336 3.185-1.613 1.251-0.276 2.595-0.257 4.031 0.055v0c1.26 0.299 2.501 0.765 3.723 1.399 1.215 0.633 2.24 1.313 3.074 2.042z" fill="#000000" data-fill-palette-color="primary"></path><path d="M190.193 39.217l12.38-24.595 15.174 7.638-0.823 1.636-13.475-6.783-4.914 9.763 12.126 6.104-0.819 1.627-12.127-6.104-5.004 9.942 13.96 7.027-0.819 1.627z" fill="#000000" data-fill-palette-color="primary"></path><path d="M214.855 54.463l-1.405-1.282 27.963-13.38 0.119 0.108-10.776 29.066-1.576-1.439 9.849-25.81 1.476 0.339zM223.404 49.934l1.549-1.011 9.024 8.236-0.806 1.689z" fill="#000000" data-fill-palette-color="primary"></path><path d="M260.341 62.837l3.559 5.271c0.957 1.418 1.551 2.819 1.78 4.202 0.233 1.389 0.073 2.699-0.48 3.93-0.559 1.235-1.555 2.337-2.99 3.306v0c-0.856 0.578-1.775 1.004-2.756 1.277-0.987 0.277-2.001 0.339-3.044 0.185-1.037-0.158-2.056-0.563-3.055-1.216-1.005-0.649-1.941-1.616-2.808-2.9v0l-2.388-3.537-9.576 6.464-1.064-1.576zM249.669 72.336l2.388 3.536c0.751 1.112 1.554 1.918 2.408 2.418 0.85 0.503 1.69 0.777 2.523 0.822 0.827 0.049 1.602-0.037 2.326-0.259 0.724-0.222 1.342-0.506 1.854-0.851v0c0.728-0.492 1.314-1.057 1.758-1.696 0.439-0.645 0.723-1.346 0.85-2.104 0.131-0.753 0.094-1.545-0.112-2.377-0.202-0.827-0.592-1.669-1.17-2.525v0l-2.607-3.862z" fill="#000000" data-fill-palette-color="primary"></path><path d="M276.131 91.557l2.298 5.931c0.618 1.595 0.885 3.093 0.802 4.492-0.081 1.406-0.528 2.648-1.341 3.726-0.819 1.08-2.036 1.933-3.649 2.558v0c-0.963 0.373-1.954 0.584-2.971 0.633-1.023 0.051-2.027-0.114-3.01-0.496-0.976-0.384-1.879-1.006-2.708-1.864-0.836-0.856-1.533-2.007-2.094-3.452v0l-1.541-3.979-10.773 4.174-0.688-1.773zM263.615 98.448l1.542 3.978c0.485 1.251 1.089 2.215 1.811 2.893 0.717 0.679 1.475 1.134 2.277 1.362 0.795 0.232 1.57 0.32 2.326 0.265 0.756-0.055 1.421-0.195 1.997-0.418v0c0.82-0.318 1.516-0.739 2.09-1.263 0.571-0.531 1.004-1.152 1.296-1.863 0.295-0.705 0.435-1.485 0.42-2.343-0.013-0.851-0.207-1.758-0.58-2.721v0l-1.684-4.345z" fill="#000000" data-fill-palette-color="primary"></path><path d="M14.966 186.135l-0.361-1.089 16.389-5.443 0.007 0.019-8.597 11.635-0.091-0.499 13.772 4.175 0.01 0.028-16.39 5.443-0.362-1.089 13.84-4.596-0.513 0.277-11.628-3.562-0.016-0.048 7.175-9.848 0.557 0.017z" fill="#000000" data-fill-palette-color="primary"></path><path d="M23.261 207.39l-0.554-1.016 18.897-2.17 0.043 0.079-12.069 14.702-0.626-1.149 10.877-12.998 0.788 0.499zM29.132 206.472l1.09-0.273 3.587 6.584-0.796 0.812z" fill="#000000" data-fill-palette-color="primary"></path><path d="M47.593 215.206l-6.117 4.524-0.696 0.464 0.212-0.069 11.58 1.813 0.891 1.206-9.718-1.513-3.393 12.185-0.873-1.181 3.159-11.249-2.785-0.481-5.838 4.342-0.706-0.954 13.578-10.042z" fill="#000000" data-fill-palette-color="primary"></path><path d="M44.716 238.381l12.113-11.767 7.265 7.479-0.802 0.778-6.451-6.641-4.808 4.67 5.8 5.97-0.802 0.779-5.799-5.97-4.902 4.761 6.683 6.88-0.801 0.778z" fill="#000000" data-fill-palette-color="primary"></path><path d="M66.394 256.93l-0.966-0.619 9.317-14.541 0.017 0.011 0.636 14.452-0.385-0.331 13.332-5.417 0.026 0.016-9.318 14.541-0.966-0.619 7.868-12.279-0.225 0.538-11.279 4.545-0.043-0.027-0.617-12.169 0.444-0.337z" fill="#000000" data-fill-palette-color="primary"></path><path d="M91.542 252.169l1.256 0.519-0.284 17.001-0.556-0.339 11.629-12.204 1.237 0.511-13.389 13.589z" fill="#000000" data-fill-palette-color="primary"></path><path d="M108.927 258.75l3.769 1.023c1.01 0.274 1.847 0.686 2.511 1.234 0.664 0.549 1.115 1.22 1.352 2.014 0.236 0.794 0.215 1.706-0.065 2.736v0c-0.165 0.609-0.423 1.175-0.774 1.698-0.344 0.525-0.789 0.961-1.335 1.306-0.544 0.339-1.181 0.559-1.91 0.66-0.723 0.103-1.544 0.029-2.464-0.22v0l-2.525-0.685-1.856 6.837-1.126-0.306zM107.781 267.428l2.526 0.685c0.796 0.216 1.491 0.269 2.084 0.159 0.599-0.108 1.101-0.316 1.504-0.624 0.403-0.308 0.728-0.658 0.973-1.05 0.247-0.399 0.42-0.779 0.519-1.142v0c0.142-0.524 0.187-1.023 0.135-1.496-0.052-0.473-0.197-0.912-0.435-1.317-0.246-0.4-0.585-0.753-1.017-1.058-0.425-0.303-0.942-0.537-1.55-0.703v0l-2.759-0.748z" fill="#000000" data-fill-palette-color="primary"></path><path d="M129.31 279.637l1.202-16.845 9.446 0.675-0.079 1.114-8.282-0.591-0.496 6.946 7.328 0.523-0.078 1.095-7.328-0.523-0.549 7.689z" fill="#000000" data-fill-palette-color="primary"></path><path d="M143.264 271.66v0c-0.092-1.184 0.042-2.312 0.403-3.382 0.361-1.071 0.905-2.036 1.632-2.894 0.733-0.865 1.598-1.561 2.592-2.089 1.002-0.529 2.098-0.84 3.289-0.933v0c1.184-0.092 2.315 0.045 3.394 0.411 1.078 0.367 2.044 0.921 2.895 1.662 0.851 0.734 1.545 1.602 2.081 2.604 0.529 1.002 0.84 2.095 0.932 3.279v0c0.092 1.184-0.045 2.312-0.413 3.383-0.374 1.072-0.925 2.034-1.652 2.885-0.727 0.858-1.595 1.548-2.605 2.071-1.009 0.523-2.106 0.83-3.289 0.922v0c-1.191 0.093-2.321-0.034-3.391-0.381-1.063-0.348-2.023-0.879-2.88-1.593-0.849-0.708-1.535-1.566-2.059-2.575-0.523-1.009-0.833-2.132-0.929-3.37zM144.451 271.598v0c0.08 1.023 0.346 1.972 0.797 2.845 0.445 0.874 1.035 1.622 1.77 2.244 0.735 0.629 1.563 1.103 2.483 1.422 0.927 0.318 1.895 0.438 2.905 0.359v0c1.043-0.081 2.002-0.351 2.874-0.81 0.873-0.458 1.62-1.055 2.243-1.79 0.63-0.729 1.103-1.56 1.421-2.493 0.318-0.933 0.436-1.922 0.354-2.965v0c-0.08-1.03-0.35-1.982-0.808-2.854-0.459-0.879-1.056-1.637-1.793-2.273-0.729-0.636-1.561-1.117-2.494-1.441-0.934-0.324-1.912-0.446-2.936-0.366v0c-1.05 0.082-2.008 0.358-2.873 0.829-0.872 0.472-1.615 1.082-2.229 1.83-0.621 0.748-1.08 1.592-1.378 2.53-0.304 0.939-0.416 1.917-0.336 2.933z" fill="#000000" data-fill-palette-color="primary"></path><path d="M164.091 260.82l3.753-0.877c0.621-0.145 1.255-0.2 1.904-0.167 0.649 0.034 1.269 0.182 1.861 0.444 0.592 0.261 1.11 0.65 1.554 1.166 0.45 0.508 0.771 1.174 0.963 1.997v0c0.144 0.614 0.189 1.234 0.135 1.86-0.047 0.624-0.225 1.217-0.535 1.779-0.311 0.555-0.764 1.05-1.358 1.485-0.601 0.437-1.388 0.769-2.361 0.997v0l-2.548 0.595 1.613 6.899-1.137 0.266zM167.203 269.002l2.479-0.58c0.817-0.191 1.469-0.464 1.958-0.819 0.487-0.362 0.842-0.762 1.063-1.2 0.22-0.444 0.344-0.9 0.373-1.368 0.027-0.475-0.009-0.921-0.107-1.34v0c-0.115-0.49-0.31-0.93-0.587-1.32-0.279-0.396-0.626-0.718-1.043-0.965-0.418-0.254-0.888-0.423-1.41-0.508-0.528-0.076-1.082-0.047-1.664 0.089v0l-2.783 0.651zM170.827 268.723l1.336-0.343 6.317 6.419-1.323 0.309z" fill="#000000" data-fill-palette-color="primary"></path><path d="M185.857 255.203l-0.474-1.011 10.025-4.697 0.474 1.012-4.502 2.109 6.691 14.28-1.058 0.496-6.69-14.281z" fill="#000000" data-fill-palette-color="primary"></path><path d="M208.699 241.07l0.984-0.627 9.075 14.242-0.985 0.627-4.272-6.705-8.589 5.473 4.272 6.705-0.985 0.627-9.074-14.242 0.984-0.627 4.219 6.62 8.589-5.473z" fill="#000000" data-fill-palette-color="primary"></path><path d="M224.915 249.546l-11.098-12.729 7.859-6.852 0.735 0.842-6.98 6.085 4.405 5.052 6.274-5.469 0.734 0.842-6.274 5.469 4.491 5.151 7.229-6.303 0.734 0.842z" fill="#000000" data-fill-palette-color="primary"></path><path d="M246.879 225.892l-2.952 4.001-13.59-10.025 2.474-3.353c0.968-1.312 1.999-2.281 3.094-2.907 1.097-0.617 2.196-0.96 3.299-1.031 1.101-0.08 2.153 0.042 3.157 0.366 1 0.329 1.894 0.784 2.682 1.365v0c1.037 0.765 1.834 1.628 2.392 2.59 0.563 0.966 0.907 1.974 1.033 3.025 0.13 1.055 0.062 2.092-0.207 3.112-0.272 1.025-0.733 1.977-1.382 2.857zM231.945 219.604l11.776 8.686 2.073-2.81c0.605-0.821 1.036-1.687 1.292-2.599 0.265-0.913 0.34-1.829 0.226-2.747-0.115-0.918-0.417-1.796-0.909-2.634-0.496-0.841-1.204-1.601-2.121-2.278v0c-0.777-0.574-1.617-0.989-2.52-1.246-0.898-0.263-1.816-0.335-2.754-0.217-0.937 0.117-1.848 0.442-2.731 0.973-0.88 0.526-1.699 1.302-2.456 2.329v0z" fill="#000000" data-fill-palette-color="primary"></path><path d="M254.621 214l-0.538 1.025-12.303-14.506 0.042-0.08 18.929 1.866-0.607 1.159-16.851-1.822-0.023-0.932zM250.595 209.628l-0.832-0.754 3.481-6.641 1.117 0.211z" fill="#000000" data-fill-palette-color="primary"></path><path d="M263.924 193.785l-5.647-2.078-12.377 2.158 0.494-1.341 11.248-1.919-0.12 0.384-7.35-8.731 0.487-1.322 8.021 9.675 5.648 2.079z" fill="#000000" data-fill-palette-color="primary"></path><path d="M10.735 148.09c0-1.819 1.474-3.293 3.293-3.293 1.819 0 3.293 1.474 3.292 3.293 0 1.819-1.474 3.293-3.292 3.292-1.819 0-3.293-1.474-3.293-3.292z" fill="#000000" data-fill-palette-color="primary"></path><path d="M264.098 148.09c0-1.819 1.474-3.293 3.293-3.293 1.819 0 3.293 1.474 3.293 3.293 0 1.819-1.474 3.293-3.293 3.292-1.819 0-3.293-1.474-3.293-3.292z" fill="#000000" data-fill-palette-color="primary"></path></g></svg></g></svg></g></svg></g><g></g></svg></g><defs></defs></svg><rect width="279.72" height="279.72" fill="none" stroke="none" visibility="hidden"></rect></g></svg></g></svg>